<?xml version="1.0" encoding="utf-8"?>
<!-- Generator: Adobe Illustrator 16.0.0, SVG Export Plug-In . SVG Version: 6.00 Build 0)  -->
<!DOCTYPE svg PUBLIC "-//W3C//DTD SVG 1.1//EN" "http://www.w3.org/Graphics/SVG/1.1/DTD/svg11.dtd">
<svg version="1.1" id="Layer_1" xmlns="http://www.w3.org/2000/svg" xmlns:xlink="http://www.w3.org/1999/xlink" x="0px" y="0px"
	 width="512px" height="512px" viewBox="0 0 512 512" enable-background="new 0 0 512 512" xml:space="preserve">
<g>
	<g>
		<path fill="#FFFFFF" d="M486.599,256c0-127.008-103.591-230.599-230.599-230.599S25.401,128.595,25.401,256
			c0,127.404,103.591,230.599,230.599,230.599S486.599,383.008,486.599,256z M454.053,256c0,109.147-88.905,198.053-198.053,198.053
			S57.947,365.147,57.947,256S146.853,57.947,256,57.947S454.053,146.853,454.053,256z"/>
		<path fill="#FFFFFF" d="M309.185,371.101c6.351-6.351,6.351-16.67,0-23.02l-93.271-93.272l93.271-93.271
			c6.351-6.351,6.351-16.67,0-23.021c-6.351-6.35-16.67-6.35-23.021,0L181.383,243.299c-3.175,3.175-4.763,7.144-4.763,11.51
			c0,4.367,1.587,8.335,4.763,11.51l104.781,104.781c3.176,3.176,7.541,4.763,11.51,4.763
			C302.041,375.863,306.01,374.276,309.185,371.101L309.185,371.101z"/>
	</g>
</g>
</svg>
