<?xml version="1.0" encoding="utf-8"?>
<!-- Generator: Adobe Illustrator 16.0.0, SVG Export Plug-In . SVG Version: 6.00 Build 0)  -->
<!DOCTYPE svg PUBLIC "-//W3C//DTD SVG 1.1//EN" "http://www.w3.org/Graphics/SVG/1.1/DTD/svg11.dtd">
<svg version="1.1" id="Layer_1" xmlns="http://www.w3.org/2000/svg" xmlns:xlink="http://www.w3.org/1999/xlink" x="0px" y="0px"
	 width="86px" height="86px" viewBox="0 0 86 86" enable-background="new 0 0 86 86" xml:space="preserve">
<g>
	<g>
		<path fill="#FFFFFF" d="M72.52,13.48C64.632,5.59,54.157,1.25,43,1.25c-11.158,0-21.63,4.34-29.52,12.23S1.25,31.842,1.25,43
			c0,11.157,4.34,21.63,12.23,29.52C21.37,80.41,31.842,84.75,43,84.75c11.157,0,21.632-4.34,29.52-12.23
			C80.41,64.63,84.75,54.157,84.75,43C84.75,31.842,80.41,21.37,72.52,13.48z M69.164,69.164C62.171,76.156,52.875,80.006,43,80.006
			s-19.171-3.85-26.164-10.842c-14.426-14.426-14.426-37.902,0-52.328C23.829,9.843,33.125,5.995,43,5.995
			s19.171,3.848,26.164,10.841C83.59,31.262,83.59,54.738,69.164,69.164z"/>
		<path fill="#FFFFFF" d="M61.397,24.602c-0.931-0.931-2.425-0.931-3.356,0L43,39.643L27.959,24.602
			c-0.932-0.931-2.426-0.931-3.357,0c-0.931,0.931-0.931,2.425,0,3.357L39.643,43L24.602,58.042c-0.931,0.931-0.931,2.424,0,3.355
			c0.457,0.457,1.072,0.703,1.669,0.703c0.598,0,1.213-0.229,1.669-0.703l15.042-15.04l15.041,15.04
			c0.457,0.457,1.072,0.703,1.67,0.703c0.615,0,1.212-0.229,1.668-0.703c0.932-0.932,0.932-2.425,0-3.355L46.357,43l15.04-15.041
			C62.328,27.027,62.328,25.533,61.397,24.602z"/>
	</g>
</g>
</svg>
