<?xml version="1.0" encoding="utf-8"?>
<!-- Generator: Adobe Illustrator 16.0.0, SVG Export Plug-In . SVG Version: 6.00 Build 0)  -->
<!DOCTYPE svg PUBLIC "-//W3C//DTD SVG 1.1//EN" "http://www.w3.org/Graphics/SVG/1.1/DTD/svg11.dtd">
<svg version="1.1" id="Layer_1" xmlns="http://www.w3.org/2000/svg" xmlns:xlink="http://www.w3.org/1999/xlink" x="0px" y="0px"
	 width="52px" height="52px" viewBox="0 0 52 52" enable-background="new 0 0 52 52" xml:space="preserve">
<g>
	<g>
		<g>
			<path fill="#FFFFFF" d="M41.175,22.978c-0.548-0.157-1.12,0.16-1.276,0.708c-0.156,0.548,0.16,1.12,0.708,1.276
				c4.713,1.349,7.64,3.302,7.64,5.102c0,1.316-1.601,2.761-4.394,3.965c-3.07,1.322-7.428,2.291-12.273,2.728l-4.229-0.058
				c-0.004,0-0.008,0-0.014,0c-0.564,0-1.023,0.453-1.032,1.019c-0.008,0.57,0.449,1.039,1.02,1.046l4.281,0.059
				c0.004,0,0.009,0,0.015,0c0.03,0,0.061-0.002,0.091-0.004c5.079-0.453,9.683-1.48,12.961-2.894c4.661-2.009,5.64-4.296,5.64-5.86
				C50.311,27.18,47.066,24.663,41.175,22.978z"/>
			<path fill="#FFFFFF" d="M10.759,21.801c-0.57,0-1.032,0.462-1.032,1.032c0,0.571,0.462,1.033,1.032,1.033h4.245v4.268h-4.245
				c-0.57,0-1.032,0.462-1.032,1.032s0.462,1.032,1.032,1.032h5.277c0.57,0,1.033-0.462,1.033-1.032V16.502
				c0-0.57-0.462-1.032-1.033-1.032h-5.277c-0.57,0-1.032,0.462-1.032,1.032c0,0.57,0.462,1.033,1.032,1.033h4.245v4.267H10.759z"/>
			<path fill="#FFFFFF" d="M20.256,30.198h6.333c0.569,0,1.032-0.462,1.032-1.032v-6.332c0-0.57-0.462-1.032-1.032-1.032h-5.3
				v-4.267h4.245c0.57,0,1.031-0.462,1.031-1.033c0-0.57-0.461-1.032-1.031-1.032h-5.278c-0.57,0-1.032,0.462-1.032,1.032v12.664
				C19.224,29.736,19.687,30.198,20.256,30.198z M21.289,23.866h4.267v4.268h-4.267V23.866z"/>
			<path fill="#FFFFFF" d="M30.812,30.198h6.333c0.569,0,1.031-0.462,1.031-1.032V16.502c0-0.57-0.462-1.032-1.031-1.032h-6.333
				c-0.569,0-1.032,0.462-1.032,1.032v12.664C29.779,29.736,30.242,30.198,30.812,30.198z M31.844,17.535h4.267v10.599h-4.267
				V17.535L31.844,17.535z"/>
			<path fill="#FFFFFF" d="M19.635,32.766c-0.368-0.436-1.02-0.49-1.455-0.121c-0.436,0.368-0.49,1.02-0.122,1.455l2.31,2.729
				c-4.873-0.371-9.285-1.265-12.53-2.545c-3.188-1.258-5.015-2.795-5.015-4.22c0-1.654,2.45-3.436,6.554-4.767
				c0.542-0.176,0.839-0.759,0.664-1.301s-0.759-0.839-1.3-0.664c-2.388,0.775-4.281,1.696-5.628,2.738
				c-1.562,1.21-2.354,2.553-2.354,3.993c0,2.385,2.186,4.508,6.323,6.141c3.362,1.326,7.869,2.257,12.825,2.659l-2.059,2.281
				c-0.382,0.423-0.349,1.076,0.075,1.458c0.197,0.179,0.445,0.267,0.691,0.267c0.282,0,0.562-0.116,0.766-0.341l3.757-4.164
				c0.171-0.188,0.266-0.436,0.266-0.69v-0.079c0-0.245-0.086-0.48-0.244-0.667L19.635,32.766z"/>
			<path fill="#FFFFFF" d="M40.133,15.417h4.22c0.57,0,1.034-0.462,1.034-1.032v-4.222c0-0.57-0.464-1.032-1.034-1.032h-4.22
				c-0.569,0-1.031,0.462-1.031,1.032v4.222C39.102,14.955,39.563,15.417,40.133,15.417z M41.166,11.195h2.155v2.157h-2.155V11.195z
				"/>
		</g>
	</g>
</g>
</svg>
