<?xml version="1.0" encoding="utf-8"?>
<!-- Generator: Adobe Illustrator 16.0.0, SVG Export Plug-In . SVG Version: 6.00 Build 0)  -->
<!DOCTYPE svg PUBLIC "-//W3C//DTD SVG 1.1//EN" "http://www.w3.org/Graphics/SVG/1.1/DTD/svg11.dtd">
<svg version="1.1" id="Capa_1" xmlns="http://www.w3.org/2000/svg" xmlns:xlink="http://www.w3.org/1999/xlink" x="0px" y="0px"
	 width="512px" height="512px" viewBox="0 0 512 512" enable-background="new 0 0 512 512" xml:space="preserve">
<g>
	<g>
		<path fill="#6A6A6A" d="M256,512c141.154,0,256-114.845,256-256C512,114.845,397.154,0,256,0C114.845,0,0,114.845,0,256
			C0,397.155,114.845,512,256,512z M256,25.579c127.061,0,230.421,103.36,230.421,230.421S383.061,486.421,256,486.421
			S25.579,383.061,25.579,256S128.939,25.579,256,25.579z"/>
		<path fill="#6A6A6A" d="M135.726,265.083l71.935,71.935c5.012,5.012,13.051,5.012,18.062,0s5.012-13.051,0-18.062l-50.114-50.114
			h191.583c7.1,0,12.842-5.742,12.842-12.842s-5.742-12.842-12.842-12.842H175.713l50.114-50.114c5.011-5.011,5.011-13.05,0-18.062
			c-5.011-5.011-13.051-5.011-18.062,0l-71.936,71.935c-2.506,2.505-3.758,5.742-3.758,9.083S133.221,262.578,135.726,265.083z"/>
	</g>
</g>
</svg>
