<?xml version="1.0" encoding="utf-8"?>
<!-- Generator: Adobe Illustrator 16.0.0, SVG Export Plug-In . SVG Version: 6.00 Build 0)  -->
<!DOCTYPE svg PUBLIC "-//W3C//DTD SVG 1.1//EN" "http://www.w3.org/Graphics/SVG/1.1/DTD/svg11.dtd">
<svg version="1.1" id="Capa_1" xmlns="http://www.w3.org/2000/svg" xmlns:xlink="http://www.w3.org/1999/xlink" x="0px" y="0px"
	 width="512px" height="512px" viewBox="0 0 512 512" enable-background="new 0 0 512 512" xml:space="preserve">
<g>
	<g>
		<path fill="#6A6A6A" d="M512,256C512,114.845,397.155,0,256,0C114.846,0,0,114.845,0,256c0,141.155,114.846,256,256,256
			C397.155,512,512,397.155,512,256z M486.421,256c0,127.061-103.36,230.421-230.421,230.421S25.579,383.061,25.579,256
			S128.939,25.579,256,25.579S486.421,128.939,486.421,256z"/>
		<path fill="#6A6A6A" d="M379.928,256c0-3.341-1.252-6.578-3.758-9.083l-71.936-71.935c-5.011-5.011-13.051-5.011-18.062,0
			c-5.011,5.012-5.011,13.051,0,18.062l50.114,50.114H144.809c-7.1,0-12.842,5.742-12.842,12.842s5.742,12.842,12.842,12.842
			h191.583l-50.114,50.114c-5.012,5.011-5.012,13.05,0,18.062s13.051,5.012,18.062,0l71.935-71.935
			C378.779,262.578,379.928,259.341,379.928,256z"/>
	</g>
</g>
</svg>
