<?xml version="1.0" encoding="utf-8"?>
<!-- Generator: Adobe Illustrator 16.0.0, SVG Export Plug-In . SVG Version: 6.00 Build 0)  -->
<!DOCTYPE svg PUBLIC "-//W3C//DTD SVG 1.1//EN" "http://www.w3.org/Graphics/SVG/1.1/DTD/svg11.dtd">
<svg version="1.1" id="Layer_2" xmlns="http://www.w3.org/2000/svg" xmlns:xlink="http://www.w3.org/1999/xlink" x="0px" y="0px"
	 width="274px" height="203px" viewBox="0 0 274 203" enable-background="new 0 0 274 203" xml:space="preserve">
<path fill="#FFFFFF" d="M259.108,143.374c-0.41,1.135-0.819,1.797-1.197,2.238c-0.568,0.599-1.388,0.788-2.965,0.788
	c-1.323,0-2.049-0.063-2.459-0.315c-0.378-0.252-0.535-0.819-0.535-2.017v-3.657h2.302c1.923,0,2.049,0.252,2.333,1.86h0.882v-4.761
	h-0.882c-0.284,1.513-0.442,1.734-2.333,1.734h-2.302v-4.54c0-0.851,0.062-0.882,0.915-0.882h1.67c1.671,0,2.176,0.22,2.585,0.756
	c0.315,0.379,0.567,0.915,0.852,1.892l0.851-0.063c-0.126-1.45-0.221-2.995-0.252-3.626h-11.35v0.883
	c2.018,0.126,2.176,0.284,2.176,2.585v7.661c0,2.27-0.158,2.459-2.396,2.648v0.851h12.169c0.188-0.63,0.662-2.963,0.818-3.877
	L259.108,143.374z M243.156,136.753c-0.126-1.388-0.283-3.563-0.283-4.509h-0.662c-0.348,0.41-0.536,0.536-1.166,0.536h-9.396
	c-0.599,0-0.883-0.063-1.229-0.536h-0.662c-0.031,1.135-0.189,2.743-0.283,4.572h0.882c0.253-1.167,0.474-1.766,0.788-2.207
	c0.41-0.568,0.883-0.82,2.838-0.82h0.978v10.151c0,2.27-0.189,2.428-2.364,2.586v0.882h7.44v-0.882
	c-2.303-0.158-2.491-0.284-2.491-2.617v-10.12h1.387c1.419,0,2.081,0.189,2.491,0.725c0.284,0.379,0.566,1.072,0.819,2.302
	L243.156,136.753z M221.12,141.387h-4.225l2.081-5.517h0.063L221.12,141.387z M227.803,147.408v-0.851
	c-1.419-0.095-2.018-0.284-2.743-2.144l-4.854-12.074l-0.978,0.221l-4.635,11.317c-0.945,2.302-1.544,2.522-2.995,2.68v0.851h5.707
	v-0.851l-0.757-0.095c-0.914-0.126-1.229-0.378-0.852-1.607c0.252-0.852,0.505-1.608,0.757-2.239h5.139l0.914,2.365
	c0.41,1.135,0.221,1.387-0.726,1.513l-0.566,0.063v0.851H227.803z M207.217,142.963c-0.505,1.387-0.851,2.081-1.387,2.617
	c-0.662,0.662-1.987,0.819-4.446,0.819c-1.607,0-2.585-0.031-3.278-0.126l9.3-13.083l-0.188-0.41h-9.458
	c-0.694,0-1.009-0.063-1.261-0.536h-0.694c-0.062,1.198-0.22,2.869-0.315,4.761h0.852c0.284-1.135,0.536-1.797,0.883-2.333
	c0.347-0.599,0.914-0.851,3.247-0.851h3.436l-9.426,13.209l0.158,0.378h12.516c0.252-0.756,0.726-3.058,0.914-4.256L207.217,142.963
	z M181.113,140.126v-5.139c0-0.946,0.126-1.229,1.451-1.229c1.828,0,3.373,0.914,3.373,3.215c0,1.104-0.41,2.144-1.229,2.648
	c-0.662,0.379-1.418,0.505-2.302,0.505H181.113z M191.265,146.872c-0.568-0.189-1.198-0.473-1.734-1.04
	c-0.535-0.567-0.945-1.072-1.733-2.207c-0.726-1.009-1.734-2.648-2.081-3.279c1.513-0.567,2.995-1.733,2.995-3.783
	c0-1.418-0.693-2.459-1.608-2.995c-0.946-0.599-2.111-0.788-3.688-0.788h-6.968v0.851c1.986,0.158,2.176,0.253,2.176,2.554v7.85
	c0,2.207-0.189,2.364-2.271,2.522v0.851h7.03v-0.851c-2.08-0.158-2.271-0.347-2.271-2.522v-2.932h0.726
	c1.198,0,1.545,0.221,2.113,1.167c0.44,0.788,1.292,2.269,2.017,3.278c0.946,1.356,1.955,2.049,4.477,2.049h0.726L191.265,146.872z
	 M164.91,138.581h-5.801c0.945-2.585,1.954-5.328,2.963-8.039h0.063L164.91,138.581z M172.948,147.408v-0.882
	c-2.049-0.19-2.459-0.473-3.467-3.185c-2.018-5.485-4.13-11.475-6.085-16.897l-0.977,0.283l-6.526,16.551
	c-1.103,2.775-1.545,2.964-3.531,3.248v0.882h6.842v-0.882c-2.364-0.221-2.648-0.536-1.954-2.523
	c0.408-1.324,0.882-2.648,1.387-4.066h6.715c0.693,1.923,1.324,3.625,1.734,4.855c0.409,1.229,0.126,1.481-1.86,1.734v0.882H172.948
	z M140.761,132.78h-6.116v0.851c1.797,0.127,2.302,0.379,2.428,1.419c0.095,0.788,0.157,1.829,0.157,4.004v4.035h-0.062
	l-8.921-10.309h-4.288v0.851c2.175,0.158,2.68,0.631,2.68,3.248v4.224c0,2.175-0.095,3.342-0.189,4.098
	c-0.127,0.946-0.693,1.23-2.144,1.356v0.851h6.147v-0.851c-1.734-0.126-2.333-0.41-2.428-1.387
	c-0.126-0.725-0.188-1.892-0.188-4.067v-4.949l0.031-0.032l9.489,11.444h1.04v-8.512c0-2.175,0.095-3.216,0.189-4.035
	c0.095-1.009,0.662-1.261,2.175-1.388V132.78z M114.059,141.387h-4.224l2.081-5.517h0.062L114.059,141.387z M120.744,147.408v-0.851
	c-1.42-0.095-2.019-0.284-2.743-2.144l-4.855-12.074l-0.977,0.221l-4.634,11.317c-0.946,2.302-1.546,2.522-2.995,2.68v0.851h5.706
	v-0.851l-0.758-0.095c-0.914-0.126-1.229-0.378-0.851-1.607c0.252-0.852,0.504-1.608,0.757-2.239h5.138l0.915,2.365
	c0.409,1.135,0.221,1.387-0.726,1.513l-0.567,0.063v0.851H120.744z M100.976,132.78h-4.918l-4.98,10.246l-4.571-10.246H81.62v0.883
	c2.238,0.158,2.428,0.284,2.238,2.837l-0.379,4.414c-0.188,2.049-0.346,3.279-0.504,4.256c-0.158,0.946-0.694,1.261-2.112,1.387
	v0.851h5.896v-0.851c-1.671-0.126-2.145-0.41-2.207-1.419c-0.031-0.788-0.031-1.923,0.126-4.129l0.316-5.833h0.094l4.824,11.98
	h0.661l5.58-12.2h0.095l-0.031,9.111c-0.032,2.206-0.189,2.301-2.239,2.49v0.851h7.094v-0.851c-2.207-0.189-2.333-0.315-2.364-2.49
	l-0.157-7.913c-0.063-2.207,0.094-2.333,2.427-2.491V132.78z M67.623,140.126v-5.139c0-0.946,0.126-1.229,1.449-1.229
	c1.829,0,3.373,0.914,3.373,3.215c0,1.104-0.408,2.144-1.229,2.648c-0.662,0.379-1.419,0.505-2.302,0.505H67.623z M77.773,146.872
	c-0.566-0.189-1.197-0.473-1.733-1.04c-0.536-0.567-0.945-1.072-1.734-2.207c-0.725-1.009-1.734-2.648-2.08-3.279
	c1.513-0.567,2.995-1.733,2.995-3.783c0-1.418-0.694-2.459-1.608-2.995c-0.945-0.599-2.111-0.788-3.688-0.788h-6.967v0.851
	c1.986,0.158,2.175,0.253,2.175,2.554v7.85c0,2.207-0.188,2.364-2.269,2.522v0.851h7.029v-0.851c-2.081-0.158-2.27-0.347-2.27-2.522
	v-2.932h0.725c1.198,0,1.545,0.221,2.112,1.167c0.441,0.788,1.293,2.269,2.018,3.278c0.946,1.356,1.954,2.049,4.478,2.049h0.725
	L77.773,146.872z M58.07,143.374c-0.41,1.135-0.82,1.797-1.197,2.238c-0.568,0.599-1.387,0.788-2.964,0.788
	c-1.324,0-2.049-0.063-2.459-0.315c-0.378-0.252-0.536-0.819-0.536-2.017v-3.657h2.302c1.923,0,2.049,0.252,2.333,1.86h0.882v-4.761
	h-0.882c-0.284,1.513-0.442,1.734-2.333,1.734h-2.302v-4.54c0-0.851,0.063-0.882,0.915-0.882h1.671c1.67,0,2.175,0.22,2.585,0.756
	c0.316,0.379,0.568,0.915,0.851,1.892l0.852-0.063c-0.127-1.45-0.221-2.995-0.252-3.626h-11.35v0.883
	c2.017,0.126,2.175,0.284,2.175,2.585v7.661c0,2.27-0.158,2.459-2.396,2.648v0.851h12.169c0.188-0.63,0.662-2.963,0.819-3.877
	L58.07,143.374z M42.748,137.919H34.74v0.851c3.09,0.252,3.311,0.442,3.311,2.711v2.68c0,1.324-0.379,1.703-1.009,2.049
	c-0.694,0.347-1.671,0.568-2.743,0.568c-6.084,0-8.764-5.297-8.764-9.836c0-5.833,3.531-9.363,8.354-9.363
	c2.995,0,5.391,1.04,6.148,4.886l0.882-0.189c-0.252-2.081-0.409-3.815-0.504-4.918c-1.009-0.221-3.436-0.914-6.053-0.914
	c-6.179,0-12.043,3.562-12.043,10.876c0,6.242,4.635,10.561,11.57,10.561c2.522,0,5.107-0.693,7.062-1.166
	c-0.189-0.851-0.221-1.86-0.221-2.964v-2.679c0-1.86,0.126-2.018,2.018-2.302V137.919z"/>
<path fill="#FFFFFF" d="M186.33,166.918c-0.095-1.041-0.213-2.671-0.213-3.379h-0.497c-0.26,0.308-0.402,0.402-0.875,0.402H177.7
	c-0.449,0-0.662-0.047-0.923-0.402h-0.493c-0.024,0.85-0.142,2.054-0.213,3.426h0.659c0.188-0.875,0.354-1.323,0.592-1.654
	c0.307-0.427,0.662-0.615,2.129-0.615h0.734v7.616c0,1.702-0.143,1.82-1.775,1.938v0.659h5.579v-0.659
	c-1.727-0.118-1.868-0.213-1.868-1.963v-7.592h1.04c1.063,0,1.561,0.142,1.868,0.544c0.213,0.284,0.426,0.804,0.615,1.726
	L186.33,166.918z M172.545,166.848c-0.165-1.184-0.283-2.059-0.425-2.767c-0.425-0.118-1.299-0.447-2.388-0.447
	c-2.413,0-3.9,1.368-3.9,3.284c0,1.797,1.676,2.649,2.978,3.193l0.521,0.236c0.923,0.401,1.917,0.923,1.917,2.224
	c0,1.088-0.781,1.892-1.941,1.892c-1.798,0-2.837-1.82-3.261-3.146l-0.686,0.118c0.188,1.183,0.426,2.578,0.567,2.957
	c0.425,0.259,1.558,0.823,3.072,0.823c2.342,0,4.089-1.416,4.065-3.379c0-1.915-1.44-2.719-3-3.357l-0.427-0.166
	c-1.159-0.496-2.083-0.946-2.083-2.175c0-0.924,0.64-1.752,1.775-1.752c1.396,0,2.082,1.112,2.53,2.556L172.545,166.848z
	 M162.236,174.91v-0.635c-1.561-0.119-1.702-0.237-1.702-1.94v-5.794c0-1.751,0.165-1.822,1.702-1.964v-0.635h-5.27v0.659
	c1.514,0.117,1.655,0.188,1.655,1.916v5.817c0,1.703-0.142,1.821-1.655,1.94v0.635H162.236z M153.937,166.918
	c-0.095-1.041-0.214-2.671-0.214-3.379h-0.495c-0.261,0.308-0.402,0.402-0.875,0.402h-7.045c-0.45,0-0.663-0.047-0.924-0.402h-0.494
	c-0.022,0.85-0.142,2.054-0.212,3.426h0.659c0.189-0.875,0.355-1.323,0.591-1.654c0.309-0.427,0.663-0.615,2.131-0.615h0.733v7.616
	c0,1.702-0.142,1.82-1.774,1.938v0.659h5.577v-0.659c-1.726-0.118-1.866-0.213-1.866-1.963v-7.592h1.04
	c1.063,0,1.56,0.142,1.867,0.544c0.213,0.284,0.426,0.804,0.615,1.726L153.937,166.918z M134.407,169.451v-3.856
	c0-0.71,0.094-0.923,1.088-0.923c1.373,0,2.532,0.687,2.532,2.413c0,0.828-0.308,1.609-0.923,1.988
	c-0.497,0.283-1.064,0.378-1.728,0.378H134.407z M142.02,174.51c-0.426-0.142-0.898-0.354-1.301-0.78
	c-0.401-0.427-0.709-0.805-1.3-1.656c-0.543-0.757-1.298-1.987-1.558-2.458c1.133-0.425,2.243-1.301,2.243-2.838
	c0-1.065-0.52-1.846-1.204-2.247c-0.708-0.448-1.584-0.589-2.768-0.589h-5.224v0.636c1.49,0.118,1.632,0.189,1.632,1.916v5.888
	c0,1.656-0.142,1.774-1.703,1.894v0.635h5.272v-0.635c-1.562-0.119-1.704-0.261-1.704-1.894v-2.2h0.544
	c0.898,0,1.16,0.166,1.585,0.876c0.332,0.591,0.971,1.702,1.515,2.46c0.708,1.018,1.464,1.534,3.354,1.534h0.544L142.02,174.51z
	 M123.083,170.397h-3.17l1.562-4.139h0.047L123.083,170.397z M128.093,174.91v-0.635c-1.062-0.071-1.512-0.213-2.055-1.61
	l-3.641-9.054l-0.734,0.165l-3.476,8.486c-0.709,1.729-1.158,1.894-2.244,2.013v0.635h4.276v-0.635l-0.567-0.071
	c-0.687-0.095-0.922-0.284-0.639-1.208c0.189-0.639,0.379-1.207,0.567-1.68h3.857l0.686,1.774c0.307,0.853,0.165,1.042-0.544,1.137
	l-0.426,0.048v0.635H128.093z M106.128,171.602c-0.875,1.892-1.938,2.838-3.641,2.838c-2.271,0-4.186-2.105-4.186-5.181
	c0-2.838,1.702-4.872,4.091-4.872c1.726,0,2.932,0.734,3.404,2.769l0.662-0.119c-0.118-1.111-0.188-1.986-0.307-2.931
	c-0.64-0.143-1.868-0.472-3.358-0.472c-3.783,0-6.712,2.362-6.712,5.909c0,2.934,2.031,5.673,6.334,5.673
	c1.182,0,2.932-0.353,3.405-0.493c0.331-0.614,0.78-2.151,0.969-2.979L106.128,171.602z M92.912,174.91v-0.635
	c-1.561-0.119-1.703-0.237-1.703-1.94v-5.794c0-1.751,0.166-1.822,1.703-1.964v-0.635h-5.27v0.659
	c1.513,0.117,1.654,0.188,1.654,1.916v5.817c0,1.703-0.142,1.821-1.654,1.94v0.635H92.912z M84.613,166.918
	c-0.095-1.041-0.213-2.671-0.213-3.379h-0.497c-0.26,0.308-0.402,0.402-0.874,0.402h-7.046c-0.449,0-0.662-0.047-0.923-0.402h-0.493
	c-0.024,0.85-0.143,2.054-0.213,3.426h0.658c0.189-0.875,0.355-1.323,0.593-1.654c0.307-0.427,0.662-0.615,2.13-0.615h0.732v7.616
	c0,1.702-0.142,1.82-1.774,1.938v0.659h5.579v-0.659c-1.727-0.118-1.868-0.213-1.868-1.963v-7.592h1.04
	c1.063,0,1.561,0.142,1.868,0.544c0.213,0.284,0.426,0.804,0.614,1.726L84.613,166.918z M70.829,166.848
	c-0.165-1.184-0.283-2.059-0.425-2.767c-0.425-0.118-1.299-0.447-2.389-0.447c-2.412,0-3.899,1.368-3.899,3.284
	c0,1.797,1.676,2.649,2.977,3.193l0.521,0.236c0.923,0.401,1.917,0.923,1.917,2.224c0,1.088-0.781,1.892-1.941,1.892
	c-1.798,0-2.836-1.82-3.261-3.146l-0.687,0.118c0.189,1.183,0.427,2.578,0.568,2.957c0.424,0.259,1.557,0.823,3.072,0.823
	c2.342,0,4.089-1.416,4.064-3.379c0-1.915-1.439-2.719-3-3.357l-0.426-0.166c-1.16-0.496-2.083-0.946-2.083-2.175
	c0-0.924,0.64-1.752,1.775-1.752c1.396,0,2.082,1.112,2.531,2.556L70.829,166.848z M56.147,170.397h-3.171l1.562-4.139h0.047
	L56.147,170.397z M61.158,174.91v-0.635c-1.062-0.071-1.512-0.213-2.057-1.61l-3.641-9.054l-0.733,0.165l-3.476,8.486
	c-0.709,1.729-1.158,1.894-2.244,2.013v0.635h4.277v-0.635l-0.568-0.071c-0.686-0.095-0.922-0.284-0.639-1.208
	c0.19-0.639,0.379-1.207,0.568-1.68h3.856l0.686,1.774c0.309,0.853,0.166,1.042-0.543,1.137l-0.425,0.048v0.635H61.158z
	 M45.718,171.768c-0.307,0.897-0.543,1.419-0.874,1.797c-0.379,0.449-1.017,0.591-2.081,0.615c-0.804,0-1.395-0.048-1.726-0.189
	c-0.331-0.166-0.449-0.592-0.449-1.419v-6.103c0-1.702,0.165-1.773,1.773-1.893v-0.635h-5.364v0.635
	c1.537,0.119,1.678,0.19,1.678,1.893v5.865c0,1.703-0.118,1.821-1.773,1.939v0.636h8.84c0.166-0.518,0.52-2.362,0.639-3.072
	L45.718,171.768z M28.245,165.666c0-0.828,0.024-1.018,1.16-1.018c1.396,0,2.603,0.733,2.603,2.555c0,2.295-1.562,2.674-2.39,2.674
	c-0.592,0-1.089-0.142-1.373-0.236V165.666z M24.795,163.942v0.659c1.419,0.117,1.561,0.188,1.561,1.916v5.959
	c0,1.562-0.142,1.656-1.656,1.799v0.635h5.414v-0.635c-1.728-0.143-1.87-0.237-1.87-1.823v-2.08l1.396,0.377
	c0.261,0,0.544,0,0.852-0.048c2.01-0.259,3.663-1.392,3.663-3.521c0-2.296-1.676-3.238-4.231-3.238H24.795z"/>
<path fill="#FFFFFF" d="M156.572,17.282c14.912,12.496,19.089,39.012,24.32,54.607c5.457,16.261,13.365,37.512-19.955,39.099
	c-37.881,1.806-74.612-6.338-98.292-19.031c-14.794-7.931-23.554-26.676-0.099-41.529c20.5-12.983,33.308-20.981,54.923-30.001
	C128.585,15.787,146.155,8.553,156.572,17.282"/>
<path fill="#2B2A2A" d="M171.446,95.825c-0.276-0.379-0.755-0.556-1.218-0.447c-0.433,0.103-0.793,0.49-0.859,0.927
	c-0.075,0.498,0.135,0.95,0.557,1.197c0.116,0.068,0.238,0.131,0.356,0.196c0.114,0.004,0.229,0.008,0.345,0.012
	c0.126-0.054,0.254-0.104,0.377-0.162C171.654,97.236,171.867,96.404,171.446,95.825"/>
<path fill="#2B2A2A" d="M171.446,95.825c-0.276-0.379-0.755-0.556-1.218-0.447c-0.433,0.103-0.793,0.49-0.859,0.927
	c-0.075,0.498,0.135,0.95,0.557,1.197c0.116,0.068,0.238,0.131,0.356,0.196c0.114,0.004,0.229,0.008,0.345,0.012
	c0.126-0.054,0.254-0.104,0.377-0.162C171.654,97.236,171.867,96.404,171.446,95.825z"/>
<path fill="#2B2A2A" d="M150.877,76.307c-0.213-0.118-0.45-0.153-0.69-0.135c-1.233,0.09-2.467,0.182-3.701,0.273
	c-0.215,0.017-0.426,0.033-0.643,0.051c-0.117-0.3-0.229-0.576-0.338-0.853c-1.962-4.988-4.218-9.843-6.623-14.629
	c-2.209-4.393-4.543-8.717-7.123-12.907c-0.024-0.039-0.05-0.077-0.074-0.116l-0.524,1.277c2.334,3.829,4.476,7.765,6.499,11.766
	c2.52,4.984,4.877,10.041,6.911,15.242c0.045,0.112,0.084,0.227,0.131,0.355c-0.129,0.024-0.228,0.048-0.329,0.062
	c-1.619,0.235-3.188,0.659-4.725,1.205c-0.16,0.059-0.312,0.163-0.44,0.274c-0.153,0.132-0.188,0.32-0.12,0.51
	c0.067,0.189,0.217,0.312,0.42,0.312c0.182,0.002,0.37-0.023,0.543-0.081c1.367-0.464,2.754-0.859,4.184-1.088
	c0.289-0.045,0.582-0.085,0.876-0.126c0.045,0.111,0.079,0.185,0.106,0.262c0.467,1.34,0.954,2.67,1.391,4.019
	c0.521,1.613,1,3.24,1.099,4.949c0.004,0.077,0.04,0.163,0.086,0.223c0.136,0.173,0.545,0.239,0.781,0.145
	c0.247-0.101,0.241-0.306,0.226-0.518c-0.002-0.03-0.003-0.062-0.006-0.092c-0.07-0.944-0.242-1.872-0.48-2.789
	c-0.524-2.031-1.219-4.009-1.935-5.979c-0.036-0.104-0.073-0.208-0.122-0.352c0.557-0.049,1.076-0.099,1.598-0.137
	c0.812-0.06,1.627-0.1,2.438-0.174c0.218-0.021,0.449-0.099,0.632-0.213C151.247,76.841,151.212,76.494,150.877,76.307"/>
<path fill="#2B2A2A" d="M150.877,76.307c-0.213-0.118-0.45-0.153-0.69-0.135c-1.233,0.09-2.467,0.182-3.701,0.273
	c-0.215,0.017-0.426,0.033-0.643,0.051c-0.117-0.3-0.229-0.576-0.338-0.853c-1.962-4.988-4.218-9.843-6.623-14.629
	c-2.209-4.393-4.543-8.717-7.123-12.907c-0.024-0.039-0.05-0.077-0.074-0.116l-0.524,1.277c2.334,3.829,4.476,7.765,6.499,11.766
	c2.52,4.984,4.877,10.041,6.911,15.242c0.045,0.112,0.084,0.227,0.131,0.355c-0.129,0.024-0.228,0.048-0.329,0.062
	c-1.619,0.235-3.188,0.659-4.725,1.205c-0.16,0.059-0.312,0.163-0.44,0.274c-0.153,0.132-0.188,0.32-0.12,0.51
	c0.067,0.189,0.217,0.312,0.42,0.312c0.182,0.002,0.37-0.023,0.543-0.081c1.367-0.464,2.754-0.859,4.184-1.088
	c0.289-0.045,0.582-0.085,0.876-0.126c0.045,0.111,0.079,0.185,0.106,0.262c0.467,1.34,0.954,2.67,1.391,4.019
	c0.521,1.613,1,3.24,1.099,4.949c0.004,0.077,0.04,0.163,0.086,0.223c0.136,0.173,0.545,0.239,0.781,0.145
	c0.247-0.101,0.241-0.306,0.226-0.518c-0.002-0.03-0.003-0.062-0.006-0.092c-0.07-0.944-0.242-1.872-0.48-2.789
	c-0.524-2.031-1.219-4.009-1.935-5.979c-0.036-0.104-0.073-0.208-0.122-0.352c0.557-0.049,1.076-0.099,1.598-0.137
	c0.812-0.06,1.627-0.1,2.438-0.174c0.218-0.021,0.449-0.099,0.632-0.213C151.247,76.841,151.212,76.494,150.877,76.307z"/>
<path fill="#2B2A2A" d="M125.353,38.588c-0.273-0.509-0.566-0.966-0.985-1.261c-0.114-0.006-0.231-0.011-0.347-0.017
	c-0.478,0.416-0.584,0.869-0.355,1.571c0.006,0.02,0.018,0.037,0.023,0.057l1.904,0.103C125.511,38.89,125.433,38.74,125.353,38.588
	"/>
<path fill="#2B2A2A" d="M125.353,38.588c-0.273-0.509-0.566-0.966-0.985-1.261c-0.114-0.006-0.231-0.011-0.347-0.017
	c-0.478,0.416-0.584,0.869-0.355,1.571c0.006,0.02,0.018,0.037,0.023,0.057l1.904,0.103C125.511,38.89,125.433,38.74,125.353,38.588
	z"/>
<path fill="#2B2A2A" d="M135.619,82.396c0.645,1.577,1.228,3.179,1.836,4.771c0.066,0.169,0.106,0.348,0.182,0.599
	c-0.307-0.011-0.535-0.022-0.764-0.027c-0.656-0.012-1.312,0.001-1.959,0.126c-1.049,0.202-1.94,0.728-2.781,1.351
	c-0.081,0.06-0.151,0.146-0.2,0.233c-0.177,0.316-0.011,0.664,0.346,0.738c0.206,0.043,0.39-0.012,0.562-0.125
	c0.277-0.183,0.554-0.368,0.838-0.539c0.586-0.354,1.218-0.59,1.906-0.64c0.444-0.032,0.895-0.026,1.342-0.037
	c0.332-0.009,0.667-0.001,0.998-0.03c0.6-0.052,0.854-0.339,0.826-0.938c-0.01-0.235-0.061-0.475-0.135-0.696
	c-0.254-0.753-0.51-1.507-0.796-2.248c-3.198-8.26-7.016-16.207-11.509-23.807l-0.535,1.293
	C129.515,68.833,132.796,75.491,135.619,82.396"/>
<path fill="#2B2A2A" d="M135.619,82.396c0.645,1.577,1.228,3.179,1.836,4.771c0.066,0.169,0.106,0.348,0.182,0.599
	c-0.307-0.011-0.535-0.022-0.764-0.027c-0.656-0.012-1.312,0.001-1.959,0.126c-1.049,0.202-1.94,0.728-2.781,1.351
	c-0.081,0.06-0.151,0.146-0.2,0.233c-0.177,0.316-0.011,0.664,0.346,0.738c0.206,0.043,0.39-0.012,0.562-0.125
	c0.277-0.183,0.554-0.368,0.838-0.539c0.586-0.354,1.218-0.59,1.906-0.64c0.444-0.032,0.895-0.026,1.342-0.037
	c0.332-0.009,0.667-0.001,0.998-0.03c0.6-0.052,0.854-0.339,0.826-0.938c-0.01-0.235-0.061-0.475-0.135-0.696
	c-0.254-0.753-0.51-1.507-0.796-2.248c-3.198-8.26-7.016-16.207-11.509-23.807l-0.535,1.293
	C129.515,68.833,132.796,75.491,135.619,82.396z"/>
<path fill="#2B2A2A" d="M127.116,88.442c-1.106,0.209-2.21,0.431-3.313,0.636c-0.508,0.096-1.019,0.157-1.539,0.117
	c-0.332-0.025-0.539-0.184-0.655-0.497c-0.153-0.405-0.149-0.807,0.03-1.191c0.16-0.341,0.345-0.673,0.548-0.989
	c0.393-0.609,0.815-1.198,1.209-1.804c0.386-0.59,0.751-1.192,0.987-1.858c0.102-0.283,0.178-0.584,0.201-0.882
	c0.043-0.56-0.277-0.982-0.824-1.103c-0.274-0.059-0.565-0.08-0.844-0.062c-1.107,0.077-2.178,0.363-3.252,0.617
	c-0.117,0.026-0.254,0.126-0.314,0.229c-0.137,0.235-0.1,0.487,0.051,0.713c0.145,0.215,0.346,0.179,0.566,0.132
	c0.843-0.183,1.686-0.363,2.531-0.521c0.305-0.058,0.622-0.111,1.008-0.021c-0.104,0.286-0.168,0.556-0.297,0.789
	c-0.326,0.598-0.668,1.187-1.029,1.765c-0.351,0.56-0.743,1.093-1.098,1.652c-0.189,0.299-0.361,0.616-0.498,0.943
	c-0.308,0.746-0.279,1.492,0.077,2.223c0.229,0.471,0.597,0.774,1.104,0.91c0.425,0.113,0.857,0.12,1.285,0.063
	c0.678-0.09,1.352-0.203,2.023-0.324c0.746-0.135,1.486-0.288,2.23-0.434c0.332-0.065,0.502-0.252,0.498-0.546
	C127.798,88.597,127.521,88.365,127.116,88.442"/>
<path fill="#2B2A2A" d="M127.116,88.442c-1.106,0.209-2.21,0.431-3.313,0.636c-0.508,0.096-1.019,0.157-1.539,0.117
	c-0.332-0.025-0.539-0.184-0.655-0.497c-0.153-0.405-0.149-0.807,0.03-1.191c0.16-0.341,0.345-0.673,0.548-0.989
	c0.393-0.609,0.815-1.198,1.209-1.804c0.386-0.59,0.751-1.192,0.987-1.858c0.102-0.283,0.178-0.584,0.201-0.882
	c0.043-0.56-0.277-0.982-0.824-1.103c-0.274-0.059-0.565-0.08-0.844-0.062c-1.107,0.077-2.178,0.363-3.252,0.617
	c-0.117,0.026-0.254,0.126-0.314,0.229c-0.137,0.235-0.1,0.487,0.051,0.713c0.145,0.215,0.346,0.179,0.566,0.132
	c0.843-0.183,1.686-0.363,2.531-0.521c0.305-0.058,0.622-0.111,1.008-0.021c-0.104,0.286-0.168,0.556-0.297,0.789
	c-0.326,0.598-0.668,1.187-1.029,1.765c-0.351,0.56-0.743,1.093-1.098,1.652c-0.189,0.299-0.361,0.616-0.498,0.943
	c-0.308,0.746-0.279,1.492,0.077,2.223c0.229,0.471,0.597,0.774,1.104,0.91c0.425,0.113,0.857,0.12,1.285,0.063
	c0.678-0.09,1.352-0.203,2.023-0.324c0.746-0.135,1.486-0.288,2.23-0.434c0.332-0.065,0.502-0.252,0.498-0.546
	C127.798,88.597,127.521,88.365,127.116,88.442z"/>
<path fill="#2B2A2A" d="M116.029,90.997c0.24,0.01,0.63,0.026,1.02,0.042c0.057,0.002,0.113,0.003,0.17,0.008
	c0.216,0.021,0.382-0.07,0.49-0.271c0.231-0.424,0.066-1.084-0.488-1.078c-0.045,0.002-0.092-0.004-0.137-0.007
	c-0.778-0.071-1.558-0.137-2.334-0.214l-0.484,1.306C114.82,90.851,115.394,90.918,116.029,90.997"/>
<path fill="#2B2A2A" d="M116.029,90.997c0.24,0.01,0.63,0.026,1.02,0.042c0.057,0.002,0.113,0.003,0.17,0.008
	c0.216,0.021,0.382-0.07,0.49-0.271c0.231-0.424,0.066-1.084-0.488-1.078c-0.045,0.002-0.092-0.004-0.137-0.007
	c-0.778-0.071-1.558-0.137-2.334-0.214l-0.484,1.306C114.82,90.851,115.394,90.918,116.029,90.997z"/>
<path fill="#2B2A2A" d="M169.913,94.8c0.417-0.092,0.688-0.565,0.437-0.893c-0.254-0.332-0.361-0.733-0.438-1.137
	c-0.035-0.185-0.08-0.368-0.11-0.553c-0.125-0.744-0.456-1.385-0.988-1.94c-0.308-0.321-0.595-0.665-0.865-1.016
	c-0.174-0.224-0.323-0.472-0.447-0.726c-0.241-0.501-0.131-0.889,0.348-1.193c0.184-0.118,0.408-0.194,0.625-0.242
	c0.197-0.044,0.408-0.028,0.614-0.03c0.36-0.002,0.638-0.25,0.659-0.598c0.014-0.222-0.088-0.391-0.309-0.458
	c-0.154-0.047-0.316-0.062-0.477-0.089c-0.782-0.006-1.484,0.19-2.061,0.717c-0.657,0.6-0.863,1.326-0.539,2.143
	c0.146,0.366,0.348,0.722,0.584,1.041c0.34,0.458,0.725,0.888,1.104,1.315c0.299,0.335,0.494,0.706,0.581,1.137
	c0.069,0.351,0.144,0.697,0.226,1.043c0.103,0.442,0.285,0.854,0.539,1.237C169.515,94.74,169.681,94.85,169.913,94.8"/>
<path fill="#2B2A2A" d="M169.913,94.8c0.417-0.092,0.688-0.565,0.437-0.893c-0.254-0.332-0.361-0.733-0.438-1.137
	c-0.035-0.185-0.08-0.368-0.11-0.553c-0.125-0.744-0.456-1.385-0.988-1.94c-0.308-0.321-0.595-0.665-0.865-1.016
	c-0.174-0.224-0.323-0.472-0.447-0.726c-0.241-0.501-0.131-0.889,0.348-1.193c0.184-0.118,0.408-0.194,0.625-0.242
	c0.197-0.044,0.408-0.028,0.614-0.03c0.36-0.002,0.638-0.25,0.659-0.598c0.014-0.222-0.088-0.391-0.309-0.458
	c-0.154-0.047-0.316-0.062-0.477-0.089c-0.782-0.006-1.484,0.19-2.061,0.717c-0.657,0.6-0.863,1.326-0.539,2.143
	c0.146,0.366,0.348,0.722,0.584,1.041c0.34,0.458,0.725,0.888,1.104,1.315c0.299,0.335,0.494,0.706,0.581,1.137
	c0.069,0.351,0.144,0.697,0.226,1.043c0.103,0.442,0.285,0.854,0.539,1.237C169.515,94.74,169.681,94.85,169.913,94.8z"/>
<path fill="#2B2A2A" d="M159.068,79.497c0.297-0.1,0.398-0.232,0.406-0.497c0.016-0.474-0.353-0.78-0.784-0.651
	c-0.267,0.082-0.531,0.17-0.796,0.254c-1.396,0.452-2.795,0.901-4.188,1.356c-0.128,0.042-0.269,0.102-0.358,0.198
	c-0.152,0.168-0.14,0.589-0.008,0.811c0.129,0.218,0.31,0.269,0.623,0.179c0.051-0.015,0.104-0.03,0.154-0.046
	c1.07-0.346,2.141-0.69,3.21-1.036C157.908,79.876,158.49,79.69,159.068,79.497"/>
<path fill="#2B2A2A" d="M159.068,79.497c0.297-0.1,0.398-0.232,0.406-0.497c0.016-0.474-0.353-0.78-0.784-0.651
	c-0.267,0.082-0.531,0.17-0.796,0.254c-1.396,0.452-2.795,0.901-4.188,1.356c-0.128,0.042-0.269,0.102-0.358,0.198
	c-0.152,0.168-0.14,0.589-0.008,0.811c0.129,0.218,0.31,0.269,0.623,0.179c0.051-0.015,0.104-0.03,0.154-0.046
	c1.07-0.346,2.141-0.69,3.21-1.036C157.908,79.876,158.49,79.69,159.068,79.497z"/>
<path fill="#2B2A2A" d="M159.754,82.808c-0.058-0.211-0.095-0.429-0.175-0.629c-0.078-0.192-0.18-0.23-0.371-0.172
	c-1.324,0.399-2.646,0.803-3.971,1.21c-0.077,0.024-0.164,0.072-0.215,0.137c-0.141,0.175-0.123,0.629,0.015,0.867
	c0.129,0.217,0.282,0.264,0.603,0.168c1.26-0.383,2.521-0.77,3.78-1.155C159.681,83.154,159.708,83.109,159.754,82.808"/>
<path fill="#2B2A2A" d="M159.754,82.808c-0.058-0.211-0.095-0.429-0.175-0.629c-0.078-0.192-0.18-0.23-0.371-0.172
	c-1.324,0.399-2.646,0.803-3.971,1.21c-0.077,0.024-0.164,0.072-0.215,0.137c-0.141,0.175-0.123,0.629,0.015,0.867
	c0.129,0.217,0.282,0.264,0.603,0.168c1.26-0.383,2.521-0.77,3.78-1.155C159.681,83.154,159.708,83.109,159.754,82.808z"/>
<path fill="#2B2A2A" d="M160.564,85.336c-0.136-0.207-0.299-0.243-0.516-0.131c-0.215,0.111-0.422,0.241-0.635,0.358
	c-0.631,0.347-1.278,0.646-1.994,0.733c-0.217,0.025-0.434,0.047-0.65,0.065c-0.188,0.016-0.294,0.128-0.361,0.301
	c-0.086,0.219-0.071,0.434,0.013,0.645c0.076,0.188,0.216,0.288,0.412,0.319c0.431-0.064,0.866-0.111,1.291-0.202
	c0.854-0.183,1.612-0.625,2.368-1.063c0.277-0.161,0.33-0.264,0.257-0.585C160.714,85.623,160.648,85.467,160.564,85.336"/>
<path fill="#2B2A2A" d="M160.564,85.336c-0.136-0.207-0.299-0.243-0.516-0.131c-0.215,0.111-0.422,0.241-0.635,0.358
	c-0.631,0.347-1.278,0.646-1.994,0.733c-0.217,0.025-0.434,0.047-0.65,0.065c-0.188,0.016-0.294,0.128-0.361,0.301
	c-0.086,0.219-0.071,0.434,0.013,0.645c0.076,0.188,0.216,0.288,0.412,0.319c0.431-0.064,0.866-0.111,1.291-0.202
	c0.854-0.183,1.612-0.625,2.368-1.063c0.277-0.161,0.33-0.264,0.257-0.585C160.714,85.623,160.648,85.467,160.564,85.336z"/>
<path fill="#2B2A2A" d="M124.865,38.018c-0.199-0.276-0.414-0.526-0.721-0.686c-0.084-0.003-0.168-0.006-0.252-0.009
	c-0.35,0.227-0.428,0.473-0.26,0.856c0.045,0.105,0.108,0.205,0.172,0.3c0.088,0.132,0.184,0.26,0.276,0.387
	c2.097,2.929,4.157,5.884,6.089,8.926c0.454,0.714,0.889,1.441,1.327,2.165l0.537-1.313
	C129.792,45.001,127.353,41.494,124.865,38.018"/>
<path fill="#2B2A2A" d="M124.865,38.018c-0.199-0.276-0.414-0.526-0.721-0.686c-0.084-0.003-0.168-0.006-0.252-0.009
	c-0.35,0.227-0.428,0.473-0.26,0.856c0.045,0.105,0.108,0.205,0.172,0.3c0.088,0.132,0.184,0.26,0.276,0.387
	c2.097,2.929,4.157,5.884,6.089,8.926c0.454,0.714,0.889,1.441,1.327,2.165l0.537-1.313
	C129.792,45.001,127.353,41.494,124.865,38.018z"/>
<path fill="#2B2A2A" d="M107.969,89.02c-0.207-0.51-0.424-1.02-0.683-1.505c-1.152-2.156-2.295-4.314-3.486-6.448
	c-3.223-5.768-6.598-11.445-10.209-16.982c-4.326-6.636-7.281-10.862-11.991-17.231c-0.211-0.284-0.529-0.311-0.827-0.081
	c-0.243,0.188-0.279,0.38-0.119,0.636c0.044,0.069,0.096,0.133,0.145,0.199c1.629,2.219,1.531,2.275,3.152,4.499
	c4.546,6.236,8.901,12.601,12.895,19.206c3.133,5.182,6.16,10.423,8.991,15.774c0.363,0.685,0.686,1.392,1.022,2.093
	c0.074,0.155,0.121,0.321,0.201,0.538c-0.152-0.006-0.243-0.006-0.335-0.013c-0.614-0.045-1.227-0.099-1.842-0.137
	c-1.274-0.077-2.542-0.021-3.807,0.165c-2.145,0.312-4.245,0.831-6.345,1.348c-0.184,0.046-0.364,0.14-0.525,0.244
	c-0.169,0.108-0.283,0.275-0.229,0.493c0.058,0.234,0.25,0.332,0.463,0.335c0.253,0.006,0.512-0.017,0.759-0.071
	c1.31-0.291,2.616-0.605,3.928-0.893c1.133-0.247,2.277-0.436,3.434-0.521c1.223-0.09,2.442-0.017,3.661,0.089
	c0.427,0.036,0.862,0.045,1.288,0.013c0.559-0.041,0.782-0.341,0.689-0.893C108.15,89.585,108.08,89.293,107.969,89.02"/>
<path fill="#2B2A2A" d="M107.969,89.02c-0.207-0.51-0.424-1.02-0.683-1.505c-1.152-2.156-2.295-4.314-3.486-6.448
	c-3.223-5.768-6.598-11.445-10.209-16.982c-4.326-6.636-7.281-10.862-11.991-17.231c-0.211-0.284-0.529-0.311-0.827-0.081
	c-0.243,0.188-0.279,0.38-0.119,0.636c0.044,0.069,0.096,0.133,0.145,0.199c1.629,2.219,1.531,2.275,3.152,4.499
	c4.546,6.236,8.901,12.601,12.895,19.206c3.133,5.182,6.16,10.423,8.991,15.774c0.363,0.685,0.686,1.392,1.022,2.093
	c0.074,0.155,0.121,0.321,0.201,0.538c-0.152-0.006-0.243-0.006-0.335-0.013c-0.614-0.045-1.227-0.099-1.842-0.137
	c-1.274-0.077-2.542-0.021-3.807,0.165c-2.145,0.312-4.245,0.831-6.345,1.348c-0.184,0.046-0.364,0.14-0.525,0.244
	c-0.169,0.108-0.283,0.275-0.229,0.493c0.058,0.234,0.25,0.332,0.463,0.335c0.253,0.006,0.512-0.017,0.759-0.071
	c1.31-0.291,2.616-0.605,3.928-0.893c1.133-0.247,2.277-0.436,3.434-0.521c1.223-0.09,2.442-0.017,3.661,0.089
	c0.427,0.036,0.862,0.045,1.288,0.013c0.559-0.041,0.782-0.341,0.689-0.893C108.15,89.585,108.08,89.293,107.969,89.02z"/>
<path fill="#2B2A2A" d="M121.916,54.246c-3.312-4.968-6.811-9.804-10.309-14.64c-0.054-0.074-0.113-0.149-0.182-0.21
	c-0.212-0.19-0.532-0.198-0.741-0.029c-0.194,0.159-0.24,0.423-0.105,0.677c0.068,0.126,0.157,0.243,0.242,0.361
	c2.806,3.879,5.597,7.769,8.323,11.704c2.484,3.585,4.806,7.255,6.976,11.008l0.531-1.298
	C125.149,59.255,123.571,56.731,121.916,54.246"/>
<path fill="#2B2A2A" d="M121.916,54.246c-3.312-4.968-6.811-9.804-10.309-14.64c-0.054-0.074-0.113-0.149-0.182-0.21
	c-0.212-0.19-0.532-0.198-0.741-0.029c-0.194,0.159-0.24,0.423-0.105,0.677c0.068,0.126,0.157,0.243,0.242,0.361
	c2.806,3.879,5.597,7.769,8.323,11.704c2.484,3.585,4.806,7.255,6.976,11.008l0.531-1.298
	C125.149,59.255,123.571,56.731,121.916,54.246z"/>
<path fill="#2B2A2A" d="M114.321,89.702c-0.485-0.05-0.971-0.15-1.437-0.287c-0.594-0.176-0.677-0.4-0.369-0.908
	c0.234-0.381,0.501-0.74,0.761-1.106c0.443-0.627,0.912-1.236,1.332-1.876c0.22-0.336,0.399-0.706,0.528-1.082
	c0.257-0.754,0.02-1.381-0.626-1.798c-0.388-0.251-0.822-0.381-1.283-0.436c-1.19-0.145-2.195,0.315-3.16,0.907
	c-0.037,0.023-0.069,0.055-0.099,0.083c-0.199,0.2-0.251,0.459-0.134,0.666c0.126,0.221,0.394,0.324,0.68,0.239
	c0.154-0.048,0.3-0.125,0.442-0.203c0.439-0.235,0.881-0.469,1.383-0.552c0.505-0.082,1.003-0.053,1.459,0.198
	c0.25,0.137,0.312,0.26,0.236,0.521c-0.059,0.202-0.136,0.404-0.246,0.583c-0.244,0.397-0.504,0.787-0.777,1.17
	c-0.391,0.547-0.807,1.075-1.188,1.628c-0.21,0.307-0.396,0.635-0.541,0.971c-0.259,0.602-0.107,1.146,0.374,1.585
	c0.184,0.169,0.424,0.296,0.656,0.403c0.445,0.205,0.934,0.294,1.418,0.353c0.318,0.038,0.641,0.073,0.969,0.106l0.463-1.093
	C114.882,89.751,114.601,89.731,114.321,89.702"/>
<path fill="#2B2A2A" d="M114.321,89.702c-0.485-0.05-0.971-0.15-1.437-0.287c-0.594-0.176-0.677-0.4-0.369-0.908
	c0.234-0.381,0.501-0.74,0.761-1.106c0.443-0.627,0.912-1.236,1.332-1.876c0.22-0.336,0.399-0.706,0.528-1.082
	c0.257-0.754,0.02-1.381-0.626-1.798c-0.388-0.251-0.822-0.381-1.283-0.436c-1.19-0.145-2.195,0.315-3.16,0.907
	c-0.037,0.023-0.069,0.055-0.099,0.083c-0.199,0.2-0.251,0.459-0.134,0.666c0.126,0.221,0.394,0.324,0.68,0.239
	c0.154-0.048,0.3-0.125,0.442-0.203c0.439-0.235,0.881-0.469,1.383-0.552c0.505-0.082,1.003-0.053,1.459,0.198
	c0.25,0.137,0.312,0.26,0.236,0.521c-0.059,0.202-0.136,0.404-0.246,0.583c-0.244,0.397-0.504,0.787-0.777,1.17
	c-0.391,0.547-0.807,1.075-1.188,1.628c-0.21,0.307-0.396,0.635-0.541,0.971c-0.259,0.602-0.107,1.146,0.374,1.585
	c0.184,0.169,0.424,0.296,0.656,0.403c0.445,0.205,0.934,0.294,1.418,0.353c0.318,0.038,0.641,0.073,0.969,0.106l0.463-1.093
	C114.882,89.751,114.601,89.731,114.321,89.702z"/>
<path fill="#FFFFFF" d="M193.264,107.524c0.474-0.207,0.886-0.487,1.236-0.841c0.35-0.354,0.624-0.764,0.823-1.23
	c0.201-0.468,0.301-0.965,0.301-1.493v-0.022c0-0.527-0.1-1.025-0.301-1.492c-0.199-0.468-0.473-0.876-0.818-1.227
	c-0.346-0.349-0.754-0.626-1.225-0.829c-0.472-0.204-0.979-0.305-1.521-0.305c-0.543,0-1.051,0.103-1.526,0.31
	c-0.474,0.207-0.886,0.487-1.236,0.841c-0.35,0.354-0.623,0.764-0.823,1.23c-0.2,0.468-0.3,0.966-0.3,1.494v0.021
	c0,0.527,0.1,1.025,0.3,1.492c0.2,0.469,0.474,0.876,0.819,1.227c0.346,0.349,0.754,0.626,1.225,0.829
	c0.471,0.204,0.979,0.305,1.52,0.305C192.281,107.833,192.789,107.731,193.264,107.524 M190.369,107.175
	c-0.422-0.182-0.787-0.43-1.098-0.744c-0.31-0.313-0.553-0.681-0.728-1.102s-0.263-0.871-0.263-1.349v-0.021
	c0-0.478,0.09-0.93,0.269-1.354c0.178-0.426,0.422-0.795,0.733-1.108c0.31-0.314,0.678-0.564,1.102-0.75
	c0.425-0.186,0.883-0.278,1.376-0.278c0.492,0,0.949,0.091,1.37,0.273c0.421,0.182,0.787,0.43,1.097,0.744
	c0.31,0.313,0.554,0.681,0.728,1.102c0.176,0.422,0.263,0.871,0.263,1.349v0.022c0,0.478-0.089,0.929-0.267,1.354
	c-0.18,0.424-0.424,0.794-0.734,1.106c-0.311,0.315-0.678,0.564-1.102,0.75c-0.426,0.186-0.883,0.278-1.377,0.278
	C191.246,107.449,190.789,107.358,190.369,107.175 M190.186,105.875h0.771v-1.403h0.824h0.022l0.983,1.403h0.922l-1.092-1.531
	c0.277-0.079,0.504-0.22,0.68-0.423c0.175-0.203,0.262-0.469,0.262-0.797v-0.022c0-0.356-0.111-0.638-0.332-0.845
	c-0.292-0.293-0.703-0.438-1.23-0.438h-1.81V105.875z M190.957,103.798v-1.284h1.007c0.25,0,0.446,0.054,0.589,0.16
	c0.143,0.107,0.214,0.265,0.214,0.471v0.021c0,0.193-0.071,0.347-0.214,0.461s-0.339,0.171-0.589,0.171H190.957z"/>
</svg>
