<?xml version="1.0" encoding="utf-8"?>
<!-- Generator: Adobe Illustrator 16.0.0, SVG Export Plug-In . SVG Version: 6.00 Build 0)  -->
<!DOCTYPE svg PUBLIC "-//W3C//DTD SVG 1.1//EN" "http://www.w3.org/Graphics/SVG/1.1/DTD/svg11.dtd">
<svg version="1.1" id="Layer_1" xmlns="http://www.w3.org/2000/svg" xmlns:xlink="http://www.w3.org/1999/xlink" x="0px" y="0px"
	 width="435px" height="109px" viewBox="0 0 435 109" enable-background="new 0 0 435 109" xml:space="preserve">
<path fill="#FFFFFF" d="M417.154,49.033c-0.409,1.135-0.818,1.797-1.196,2.237c-0.568,0.6-1.388,0.789-2.966,0.789
	c-1.322,0-2.049-0.063-2.459-0.315c-0.377-0.252-0.534-0.819-0.534-2.017V46.07h2.302c1.923,0,2.049,0.252,2.333,1.86h0.882v-4.762
	h-0.882c-0.284,1.514-0.442,1.734-2.333,1.734h-2.302v-4.54c0-0.851,0.062-0.882,0.915-0.882h1.67c1.671,0,2.176,0.22,2.585,0.756
	c0.315,0.379,0.567,0.915,0.853,1.893l0.851-0.063c-0.126-1.45-0.222-2.995-0.252-3.626H405.27v0.883
	c2.019,0.126,2.176,0.283,2.176,2.585v7.661c0,2.27-0.157,2.459-2.396,2.648v0.851h12.169c0.188-0.63,0.662-2.964,0.818-3.878
	L417.154,49.033z M401.203,42.412c-0.127-1.388-0.283-3.563-0.283-4.509h-0.662c-0.348,0.41-0.536,0.535-1.166,0.535h-9.396
	c-0.599,0-0.883-0.062-1.229-0.535h-0.662c-0.031,1.135-0.189,2.742-0.283,4.572h0.883c0.252-1.168,0.474-1.767,0.787-2.207
	c0.41-0.568,0.883-0.82,2.838-0.82h0.979v10.15c0,2.271-0.189,2.429-2.363,2.586v0.883h7.439v-0.883
	c-2.303-0.157-2.491-0.283-2.491-2.616v-10.12h1.388c1.418,0,2.08,0.189,2.49,0.725c0.284,0.379,0.566,1.072,0.819,2.303
	L401.203,42.412z M379.167,47.046h-4.225l2.08-5.517h0.063L379.167,47.046z M385.85,53.067v-0.852
	c-1.419-0.095-2.018-0.283-2.743-2.144l-4.854-12.074l-0.979,0.222l-4.635,11.316c-0.945,2.303-1.544,2.521-2.994,2.68v0.852h5.707
	v-0.852l-0.758-0.095c-0.914-0.126-1.229-0.378-0.852-1.606c0.252-0.853,0.505-1.608,0.757-2.239h5.139l0.914,2.364
	c0.41,1.136,0.222,1.388-0.726,1.514l-0.566,0.062v0.852H385.85z M365.264,48.622c-0.505,1.387-0.851,2.081-1.387,2.617
	c-0.662,0.662-1.987,0.818-4.446,0.818c-1.607,0-2.585-0.03-3.277-0.125l9.3-13.084l-0.188-0.41h-9.458
	c-0.694,0-1.009-0.062-1.261-0.535h-0.693c-0.062,1.197-0.221,2.869-0.315,4.761h0.852c0.284-1.135,0.536-1.797,0.884-2.333
	c0.346-0.599,0.914-0.852,3.246-0.852h3.437l-9.427,13.209l0.158,0.379h12.517c0.252-0.756,0.726-3.059,0.913-4.256L365.264,48.622z
	 M339.159,45.785v-5.14c0-0.945,0.127-1.229,1.451-1.229c1.828,0,3.373,0.914,3.373,3.215c0,1.104-0.41,2.145-1.229,2.648
	c-0.662,0.379-1.418,0.505-2.302,0.505H339.159L339.159,45.785z M349.312,52.531c-0.568-0.188-1.197-0.474-1.733-1.04
	c-0.535-0.566-0.945-1.072-1.733-2.207c-0.727-1.009-1.734-2.648-2.081-3.279c1.513-0.566,2.995-1.732,2.995-3.783
	c0-1.418-0.693-2.459-1.607-2.994c-0.946-0.6-2.111-0.789-3.688-0.789h-6.968v0.852c1.986,0.158,2.176,0.253,2.176,2.555v7.85
	c0,2.207-0.189,2.363-2.271,2.521v0.852h7.03v-0.852c-2.079-0.158-2.271-0.347-2.271-2.521v-2.932h0.726
	c1.198,0,1.545,0.221,2.113,1.166c0.44,0.789,1.292,2.27,2.017,3.278c0.946,1.356,1.955,2.05,4.477,2.05h0.727L349.312,52.531z
	 M322.957,44.24h-5.801c0.945-2.585,1.953-5.328,2.963-8.039h0.062L322.957,44.24z M330.995,53.067v-0.883
	c-2.049-0.189-2.459-0.473-3.467-3.185c-2.019-5.485-4.131-11.475-6.086-16.897l-0.977,0.283l-6.526,16.551
	c-1.103,2.775-1.545,2.965-3.531,3.248v0.883h6.843v-0.883c-2.364-0.221-2.647-0.535-1.954-2.522
	c0.408-1.323,0.882-2.647,1.387-4.065h6.716c0.692,1.922,1.323,3.625,1.733,4.854c0.409,1.229,0.126,1.481-1.86,1.733v0.883H330.995
	z M298.809,38.438h-6.117v0.852c1.797,0.127,2.303,0.379,2.429,1.419c0.095,0.788,0.157,1.829,0.157,4.005v4.034h-0.062
	l-8.921-10.31h-4.288v0.852c2.175,0.158,2.68,0.631,2.68,3.248v4.225c0,2.174-0.095,3.342-0.188,4.098
	c-0.128,0.945-0.693,1.23-2.144,1.355v0.852h6.146v-0.852c-1.734-0.125-2.333-0.41-2.428-1.387
	c-0.127-0.725-0.188-1.893-0.188-4.066v-4.949l0.031-0.032l9.489,11.444h1.039v-8.512c0-2.176,0.096-3.217,0.189-4.035
	c0.096-1.01,0.662-1.262,2.175-1.389L298.809,38.438L298.809,38.438z M272.105,47.046h-4.224l2.081-5.517h0.062L272.105,47.046z
	 M278.791,53.067v-0.852c-1.42-0.095-2.02-0.283-2.743-2.144l-4.854-12.074l-0.978,0.222l-4.634,11.316
	c-0.946,2.303-1.547,2.521-2.995,2.68v0.852h5.706v-0.852l-0.758-0.095c-0.914-0.126-1.229-0.378-0.852-1.606
	c0.252-0.853,0.504-1.608,0.758-2.239h5.138l0.915,2.364c0.408,1.136,0.221,1.388-0.727,1.514l-0.566,0.062v0.852H278.791z
	 M259.023,38.438h-4.918l-4.98,10.246l-4.571-10.246h-4.887v0.884c2.237,0.157,2.428,0.284,2.237,2.837l-0.379,4.414
	c-0.188,2.049-0.346,3.279-0.504,4.256c-0.158,0.946-0.693,1.262-2.111,1.387v0.852h5.896v-0.852
	c-1.671-0.125-2.146-0.41-2.207-1.418c-0.03-0.789-0.03-1.924,0.126-4.13l0.316-5.833h0.094l4.824,11.98h0.661l5.579-12.2h0.096
	l-0.031,9.11c-0.031,2.207-0.189,2.302-2.238,2.49v0.852h7.094v-0.852c-2.207-0.188-2.333-0.314-2.364-2.49l-0.157-7.912
	c-0.062-2.207,0.094-2.334,2.428-2.491v-0.884H259.023z M225.67,45.785v-5.14c0-0.945,0.126-1.229,1.449-1.229
	c1.828,0,3.373,0.914,3.373,3.215c0,1.104-0.408,2.145-1.229,2.648c-0.661,0.379-1.419,0.505-2.302,0.505H225.67L225.67,45.785z
	 M235.82,52.531c-0.566-0.188-1.197-0.474-1.733-1.04s-0.944-1.072-1.733-2.207c-0.726-1.009-1.734-2.648-2.08-3.279
	c1.512-0.566,2.994-1.732,2.994-3.783c0-1.418-0.693-2.459-1.607-2.994c-0.945-0.6-2.111-0.789-3.688-0.789h-6.967v0.852
	c1.985,0.158,2.175,0.253,2.175,2.555v7.85c0,2.207-0.188,2.363-2.27,2.521v0.852h7.029v-0.852c-2.08-0.158-2.27-0.347-2.27-2.521
	v-2.932h0.725c1.198,0,1.545,0.221,2.112,1.166c0.44,0.789,1.293,2.27,2.019,3.278c0.945,1.356,1.953,2.05,4.478,2.05h0.726
	L235.82,52.531z M216.117,49.033c-0.41,1.135-0.82,1.797-1.197,2.237c-0.568,0.6-1.387,0.789-2.964,0.789
	c-1.324,0-2.049-0.063-2.459-0.315c-0.378-0.252-0.536-0.819-0.536-2.017V46.07h2.302c1.923,0,2.049,0.252,2.333,1.86h0.882v-4.762
	h-0.882c-0.284,1.514-0.442,1.734-2.333,1.734h-2.302v-4.54c0-0.851,0.063-0.882,0.915-0.882h1.671c1.67,0,2.175,0.22,2.585,0.756
	c0.316,0.379,0.568,0.915,0.851,1.893l0.852-0.063c-0.127-1.45-0.221-2.995-0.252-3.626h-11.35v0.883
	c2.017,0.126,2.175,0.283,2.175,2.585v7.661c0,2.27-0.158,2.459-2.396,2.648v0.851h12.169c0.188-0.63,0.662-2.964,0.819-3.878
	L216.117,49.033z M200.795,43.578h-8.008v0.851c3.09,0.252,3.311,0.442,3.311,2.711v2.681c0,1.323-0.379,1.702-1.009,2.049
	c-0.694,0.347-1.671,0.567-2.743,0.567c-6.084,0-8.764-5.297-8.764-9.836c0-5.832,3.531-9.362,8.354-9.362
	c2.995,0,5.391,1.04,6.148,4.886l0.882-0.189c-0.252-2.08-0.409-3.814-0.504-4.918c-1.009-0.221-3.436-0.914-6.053-0.914
	c-6.179,0-12.043,3.562-12.043,10.877c0,6.242,4.635,10.561,11.57,10.561c2.522,0,5.107-0.693,7.062-1.166
	c-0.189-0.852-0.221-1.859-0.221-2.964v-2.679c0-1.86,0.126-2.018,2.018-2.303V43.578z"/>
<path fill="#FFFFFF" d="M344.377,72.577c-0.095-1.041-0.213-2.671-0.213-3.379h-0.497c-0.26,0.309-0.402,0.402-0.875,0.402h-7.045
	c-0.449,0-0.662-0.047-0.924-0.402h-0.492c-0.024,0.85-0.143,2.054-0.213,3.426h0.658c0.188-0.875,0.354-1.322,0.592-1.654
	c0.308-0.427,0.662-0.615,2.13-0.615h0.733v7.617c0,1.701-0.143,1.819-1.774,1.938v0.659h5.579v-0.659
	c-1.727-0.118-1.868-0.213-1.868-1.963v-7.592h1.04c1.062,0,1.561,0.142,1.867,0.543c0.214,0.285,0.427,0.805,0.615,1.727
	L344.377,72.577z M330.592,72.507c-0.165-1.184-0.282-2.059-0.425-2.767c-0.426-0.118-1.299-0.447-2.389-0.447
	c-2.412,0-3.899,1.368-3.899,3.284c0,1.797,1.676,2.648,2.978,3.193l0.521,0.236c0.923,0.4,1.917,0.922,1.917,2.223
	c0,1.089-0.781,1.893-1.94,1.893c-1.799,0-2.838-1.82-3.262-3.146l-0.686,0.119c0.188,1.183,0.426,2.578,0.566,2.957
	c0.426,0.258,1.559,0.822,3.072,0.822c2.342,0,4.089-1.416,4.064-3.379c0-1.915-1.439-2.719-3-3.357l-0.426-0.166
	c-1.16-0.496-2.084-0.945-2.084-2.174c0-0.925,0.641-1.753,1.775-1.753c1.396,0,2.082,1.112,2.529,2.556L330.592,72.507z
	 M320.283,80.569v-0.635c-1.562-0.119-1.702-0.237-1.702-1.94V72.2c0-1.751,0.165-1.822,1.702-1.964v-0.636h-5.271v0.66
	c1.515,0.116,1.655,0.188,1.655,1.916v5.816c0,1.703-0.143,1.82-1.655,1.939v0.636L320.283,80.569L320.283,80.569z M311.984,72.577
	c-0.096-1.041-0.215-2.671-0.215-3.379h-0.494c-0.262,0.309-0.402,0.402-0.875,0.402h-7.045c-0.451,0-0.664-0.047-0.925-0.402
	h-0.493c-0.022,0.85-0.143,2.054-0.213,3.426h0.659c0.188-0.875,0.354-1.322,0.591-1.654c0.309-0.427,0.663-0.615,2.131-0.615h0.733
	v7.617c0,1.701-0.142,1.819-1.774,1.938v0.659h5.578v-0.659c-1.727-0.118-1.867-0.213-1.867-1.963v-7.592h1.041
	c1.062,0,1.56,0.142,1.866,0.543c0.214,0.285,0.427,0.805,0.615,1.727L311.984,72.577z M292.454,75.11v-3.855
	c0-0.711,0.094-0.924,1.088-0.924c1.373,0,2.532,0.688,2.532,2.413c0,0.828-0.309,1.608-0.924,1.988
	c-0.496,0.282-1.063,0.378-1.728,0.378H292.454z M300.066,80.169c-0.426-0.142-0.897-0.354-1.301-0.779
	c-0.4-0.428-0.709-0.806-1.3-1.656c-0.543-0.758-1.298-1.987-1.558-2.458c1.133-0.425,2.242-1.302,2.242-2.839
	c0-1.064-0.52-1.846-1.203-2.246c-0.709-0.448-1.584-0.59-2.769-0.59h-5.224v0.637c1.49,0.117,1.632,0.189,1.632,1.916v5.888
	c0,1.656-0.142,1.774-1.703,1.894v0.636h5.272v-0.636c-1.562-0.118-1.705-0.26-1.705-1.894v-2.2h0.545
	c0.898,0,1.16,0.166,1.585,0.877c0.332,0.59,0.971,1.701,1.515,2.459c0.708,1.019,1.465,1.535,3.354,1.535h0.545L300.066,80.169z
	 M281.13,76.056h-3.17l1.562-4.139h0.047L281.13,76.056z M286.14,80.569v-0.635c-1.062-0.071-1.512-0.213-2.055-1.61l-3.642-9.054
	l-0.733,0.164l-3.476,8.486c-0.709,1.729-1.158,1.895-2.244,2.014v0.635h4.275v-0.635l-0.566-0.071
	c-0.688-0.095-0.922-0.284-0.639-1.208c0.188-0.639,0.379-1.207,0.566-1.68h3.857l0.686,1.773c0.307,0.854,0.165,1.042-0.544,1.137
	l-0.427,0.049v0.635H286.14z M264.175,77.261c-0.875,1.893-1.938,2.838-3.642,2.838c-2.271,0-4.186-2.104-4.186-5.181
	c0-2.838,1.702-4.872,4.092-4.872c1.726,0,2.932,0.734,3.403,2.77l0.662-0.119c-0.118-1.111-0.188-1.986-0.308-2.932
	c-0.639-0.143-1.867-0.472-3.357-0.472c-3.783,0-6.712,2.362-6.712,5.909c0,2.934,2.03,5.673,6.334,5.673
	c1.183,0,2.933-0.353,3.405-0.493c0.33-0.613,0.779-2.15,0.969-2.979L264.175,77.261z M250.959,80.569v-0.635
	c-1.561-0.119-1.703-0.237-1.703-1.94V72.2c0-1.751,0.166-1.822,1.703-1.964v-0.636h-5.27v0.66c1.512,0.116,1.653,0.188,1.653,1.916
	v5.816c0,1.703-0.142,1.82-1.653,1.939v0.636L250.959,80.569L250.959,80.569z M242.66,72.577c-0.096-1.041-0.213-2.671-0.213-3.379
	h-0.498c-0.26,0.309-0.401,0.402-0.873,0.402h-7.047c-0.448,0-0.662-0.047-0.922-0.402h-0.494c-0.023,0.85-0.143,2.054-0.213,3.426
	h0.658c0.189-0.875,0.355-1.322,0.594-1.654c0.307-0.427,0.662-0.615,2.129-0.615h0.732v7.617c0,1.701-0.142,1.819-1.773,1.938
	v0.659h5.578v-0.659c-1.727-0.118-1.867-0.213-1.867-1.963v-7.592h1.039c1.063,0,1.562,0.142,1.869,0.543
	c0.213,0.285,0.426,0.805,0.613,1.727L242.66,72.577z M228.876,72.507c-0.165-1.184-0.283-2.059-0.425-2.767
	c-0.426-0.118-1.299-0.447-2.389-0.447c-2.412,0-3.899,1.368-3.899,3.284c0,1.797,1.676,2.648,2.977,3.193l0.521,0.236
	c0.924,0.4,1.918,0.922,1.918,2.223c0,1.089-0.781,1.893-1.941,1.893c-1.798,0-2.836-1.82-3.261-3.146l-0.687,0.119
	c0.188,1.183,0.426,2.578,0.567,2.957c0.424,0.258,1.558,0.822,3.072,0.822c2.342,0,4.089-1.416,4.063-3.379
	c0-1.915-1.438-2.719-3-3.357l-0.426-0.166c-1.16-0.496-2.083-0.945-2.083-2.174c0-0.925,0.64-1.753,1.774-1.753
	c1.396,0,2.082,1.112,2.531,2.556L228.876,72.507z M214.194,76.056h-3.171l1.562-4.139h0.047L214.194,76.056z M219.205,80.569
	v-0.635c-1.062-0.071-1.512-0.213-2.057-1.61l-3.641-9.054l-0.733,0.164l-3.476,8.486c-0.709,1.729-1.158,1.895-2.244,2.014v0.635
	h4.277v-0.635l-0.568-0.071c-0.686-0.095-0.922-0.284-0.639-1.208c0.19-0.639,0.379-1.207,0.568-1.68h3.856l0.686,1.773
	c0.309,0.854,0.166,1.042-0.543,1.137l-0.425,0.049v0.635H219.205z M203.765,77.427c-0.307,0.897-0.543,1.42-0.874,1.797
	c-0.379,0.449-1.017,0.592-2.081,0.615c-0.804,0-1.395-0.048-1.726-0.188c-0.331-0.166-0.449-0.593-0.449-1.419v-6.104
	c0-1.701,0.165-1.773,1.773-1.893v-0.635h-5.364v0.635c1.537,0.119,1.678,0.189,1.678,1.893v5.865c0,1.703-0.118,1.82-1.773,1.939
	v0.636h8.84c0.166-0.519,0.52-2.362,0.639-3.072L203.765,77.427z M186.292,71.325c0-0.828,0.024-1.018,1.16-1.018
	c1.396,0,2.603,0.732,2.603,2.555c0,2.295-1.562,2.674-2.39,2.674c-0.592,0-1.089-0.143-1.373-0.236V71.325z M182.842,69.601v0.66
	c1.419,0.116,1.561,0.188,1.561,1.916v5.959c0,1.562-0.142,1.655-1.656,1.799v0.635h5.414v-0.635
	c-1.728-0.144-1.87-0.237-1.87-1.823v-2.08l1.396,0.377c0.261,0,0.544,0,0.852-0.048c2.01-0.26,3.663-1.393,3.663-3.521
	c0-2.296-1.676-3.238-4.231-3.238H182.842L182.842,69.601z"/>
<g>
	<path fill="#FFFFFF" d="M138.147,6.105c14.912,12.495,19.089,39.012,24.32,54.606c5.457,16.262,13.365,37.512-19.955,39.1
		C104.631,101.617,67.9,93.474,44.22,80.78c-14.794-7.932-23.554-26.676-0.099-41.529c20.5-12.982,33.308-20.98,54.923-30.001
		C110.16,4.61,127.73-2.624,138.147,6.105"/>
	<path fill="#2B2A2A" d="M153.021,84.648c-0.276-0.38-0.756-0.556-1.219-0.447c-0.433,0.103-0.793,0.49-0.858,0.927
		c-0.075,0.498,0.135,0.95,0.557,1.197c0.116,0.068,0.238,0.131,0.356,0.196c0.113,0.004,0.229,0.008,0.345,0.012
		c0.126-0.054,0.254-0.104,0.377-0.162C153.229,86.06,153.442,85.228,153.021,84.648"/>
	<path fill="#2B2A2A" d="M153.021,84.648c-0.276-0.38-0.756-0.556-1.219-0.447c-0.433,0.103-0.793,0.49-0.858,0.927
		c-0.075,0.498,0.135,0.95,0.557,1.197c0.116,0.068,0.238,0.131,0.356,0.196c0.113,0.004,0.229,0.008,0.345,0.012
		c0.126-0.054,0.254-0.104,0.377-0.162C153.229,86.06,153.442,85.228,153.021,84.648z"/>
	<path fill="#2B2A2A" d="M132.452,65.13c-0.213-0.117-0.45-0.152-0.69-0.135c-1.233,0.09-2.467,0.182-3.701,0.273
		c-0.215,0.017-0.426,0.033-0.643,0.051c-0.117-0.301-0.229-0.576-0.338-0.854c-1.962-4.988-4.218-9.843-6.623-14.629
		c-2.209-4.393-4.543-8.717-7.123-12.906c-0.024-0.039-0.05-0.078-0.074-0.116l-0.524,1.276c2.334,3.83,4.476,7.766,6.499,11.767
		c2.52,4.983,4.877,10.041,6.911,15.241c0.045,0.113,0.084,0.228,0.131,0.355c-0.129,0.024-0.228,0.049-0.329,0.062
		c-1.619,0.234-3.188,0.658-4.725,1.205c-0.16,0.059-0.312,0.162-0.44,0.273c-0.153,0.133-0.188,0.32-0.12,0.51
		c0.067,0.189,0.217,0.312,0.42,0.312c0.182,0.002,0.37-0.023,0.543-0.081c1.367-0.464,2.754-0.858,4.184-1.088
		c0.289-0.045,0.582-0.085,0.876-0.126c0.045,0.111,0.079,0.185,0.106,0.262c0.467,1.34,0.954,2.67,1.391,4.02
		c0.521,1.612,1,3.24,1.099,4.949c0.004,0.076,0.04,0.162,0.086,0.223c0.136,0.173,0.545,0.238,0.781,0.145
		c0.247-0.102,0.241-0.306,0.226-0.518c-0.002-0.03-0.003-0.062-0.006-0.092c-0.07-0.944-0.242-1.873-0.48-2.789
		c-0.524-2.031-1.219-4.01-1.935-5.979c-0.036-0.104-0.073-0.208-0.122-0.353c0.557-0.049,1.076-0.099,1.598-0.137
		c0.812-0.06,1.627-0.1,2.438-0.174c0.218-0.021,0.449-0.099,0.632-0.213C132.822,65.664,132.787,65.317,132.452,65.13"/>
	<path fill="#2B2A2A" d="M132.452,65.13c-0.213-0.117-0.45-0.152-0.69-0.135c-1.233,0.09-2.467,0.182-3.701,0.273
		c-0.215,0.017-0.426,0.033-0.643,0.051c-0.117-0.301-0.229-0.576-0.338-0.854c-1.962-4.988-4.218-9.843-6.623-14.629
		c-2.209-4.393-4.543-8.717-7.123-12.906c-0.024-0.039-0.05-0.078-0.074-0.116l-0.524,1.276c2.334,3.83,4.476,7.766,6.499,11.767
		c2.52,4.983,4.877,10.041,6.911,15.241c0.045,0.113,0.084,0.228,0.131,0.355c-0.129,0.024-0.228,0.049-0.329,0.062
		c-1.619,0.234-3.188,0.658-4.725,1.205c-0.16,0.059-0.312,0.162-0.44,0.273c-0.153,0.133-0.188,0.32-0.12,0.51
		c0.067,0.189,0.217,0.312,0.42,0.312c0.182,0.002,0.37-0.023,0.543-0.081c1.367-0.464,2.754-0.858,4.184-1.088
		c0.289-0.045,0.582-0.085,0.876-0.126c0.045,0.111,0.079,0.185,0.106,0.262c0.467,1.34,0.954,2.67,1.391,4.02
		c0.521,1.612,1,3.24,1.099,4.949c0.004,0.076,0.04,0.162,0.086,0.223c0.136,0.173,0.545,0.238,0.781,0.145
		c0.247-0.102,0.241-0.306,0.226-0.518c-0.002-0.03-0.003-0.062-0.006-0.092c-0.07-0.944-0.242-1.873-0.48-2.789
		c-0.524-2.031-1.219-4.01-1.935-5.979c-0.036-0.104-0.073-0.208-0.122-0.353c0.557-0.049,1.076-0.099,1.598-0.137
		c0.812-0.06,1.627-0.1,2.438-0.174c0.218-0.021,0.449-0.099,0.632-0.213C132.822,65.664,132.787,65.317,132.452,65.13z"/>
	<path fill="#2B2A2A" d="M106.928,27.411c-0.273-0.509-0.566-0.966-0.985-1.261c-0.114-0.007-0.231-0.011-0.347-0.017
		c-0.478,0.416-0.584,0.869-0.355,1.57c0.006,0.02,0.018,0.037,0.023,0.057l1.904,0.104
		C107.086,27.714,107.008,27.563,106.928,27.411"/>
	<path fill="#2B2A2A" d="M106.928,27.411c-0.273-0.509-0.566-0.966-0.985-1.261c-0.114-0.007-0.231-0.011-0.347-0.017
		c-0.478,0.416-0.584,0.869-0.355,1.57c0.006,0.02,0.018,0.037,0.023,0.057l1.904,0.104
		C107.086,27.714,107.008,27.563,106.928,27.411z"/>
	<path fill="#2B2A2A" d="M117.194,71.22c0.645,1.576,1.228,3.179,1.836,4.771c0.066,0.169,0.106,0.349,0.182,0.599
		c-0.307-0.011-0.535-0.021-0.764-0.026c-0.656-0.013-1.312,0.001-1.959,0.126c-1.049,0.201-1.94,0.728-2.781,1.351
		c-0.081,0.06-0.151,0.146-0.2,0.233c-0.177,0.316-0.011,0.664,0.346,0.738c0.206,0.043,0.39-0.013,0.562-0.125
		c0.277-0.184,0.554-0.369,0.838-0.539c0.586-0.354,1.218-0.59,1.906-0.641c0.444-0.031,0.895-0.025,1.342-0.037
		c0.332-0.009,0.667,0,0.998-0.029c0.6-0.053,0.854-0.34,0.826-0.938c-0.01-0.235-0.061-0.476-0.135-0.696
		c-0.254-0.752-0.51-1.507-0.796-2.248c-3.198-8.26-7.016-16.207-11.509-23.807l-0.535,1.293
		C111.09,57.656,114.371,64.314,117.194,71.22"/>
	<path fill="#2B2A2A" d="M117.194,71.22c0.645,1.576,1.228,3.179,1.836,4.771c0.066,0.169,0.106,0.349,0.182,0.599
		c-0.307-0.011-0.535-0.021-0.764-0.026c-0.656-0.013-1.312,0.001-1.959,0.126c-1.049,0.201-1.94,0.728-2.781,1.351
		c-0.081,0.06-0.151,0.146-0.2,0.233c-0.177,0.316-0.011,0.664,0.346,0.738c0.206,0.043,0.39-0.013,0.562-0.125
		c0.277-0.184,0.554-0.369,0.838-0.539c0.586-0.354,1.218-0.59,1.906-0.641c0.444-0.031,0.895-0.025,1.342-0.037
		c0.332-0.009,0.667,0,0.998-0.029c0.6-0.053,0.854-0.34,0.826-0.938c-0.01-0.235-0.061-0.476-0.135-0.696
		c-0.254-0.752-0.51-1.507-0.796-2.248c-3.198-8.26-7.016-16.207-11.509-23.807l-0.535,1.293
		C111.09,57.656,114.371,64.314,117.194,71.22z"/>
	<path fill="#2B2A2A" d="M108.691,77.265c-1.106,0.209-2.21,0.432-3.313,0.637c-0.508,0.096-1.019,0.156-1.539,0.117
		c-0.332-0.025-0.539-0.185-0.655-0.497c-0.153-0.405-0.149-0.808,0.03-1.191c0.16-0.341,0.345-0.673,0.548-0.989
		c0.393-0.608,0.815-1.197,1.209-1.804c0.386-0.59,0.751-1.192,0.987-1.858c0.102-0.282,0.178-0.584,0.201-0.881
		c0.043-0.561-0.277-0.982-0.824-1.104c-0.274-0.059-0.565-0.08-0.844-0.062c-1.107,0.077-2.178,0.363-3.252,0.617
		c-0.117,0.026-0.254,0.126-0.314,0.229c-0.137,0.236-0.1,0.488,0.051,0.714c0.145,0.215,0.346,0.179,0.566,0.132
		c0.843-0.184,1.686-0.363,2.531-0.521c0.305-0.058,0.622-0.11,1.008-0.021c-0.104,0.286-0.168,0.556-0.297,0.789
		c-0.326,0.598-0.668,1.187-1.029,1.765c-0.351,0.561-0.743,1.094-1.098,1.652c-0.189,0.299-0.361,0.615-0.498,0.943
		c-0.308,0.746-0.279,1.492,0.077,2.223c0.229,0.471,0.597,0.773,1.104,0.91c0.425,0.113,0.857,0.119,1.285,0.062
		c0.678-0.09,1.352-0.203,2.023-0.324c0.746-0.135,1.486-0.287,2.23-0.434c0.332-0.064,0.502-0.252,0.498-0.546
		C109.373,77.421,109.096,77.188,108.691,77.265"/>
	<path fill="#2B2A2A" d="M108.691,77.265c-1.106,0.209-2.21,0.432-3.313,0.637c-0.508,0.096-1.019,0.156-1.539,0.117
		c-0.332-0.025-0.539-0.185-0.655-0.497c-0.153-0.405-0.149-0.808,0.03-1.191c0.16-0.341,0.345-0.673,0.548-0.989
		c0.393-0.608,0.815-1.197,1.209-1.804c0.386-0.59,0.751-1.192,0.987-1.858c0.102-0.282,0.178-0.584,0.201-0.881
		c0.043-0.561-0.277-0.982-0.824-1.104c-0.274-0.059-0.565-0.08-0.844-0.062c-1.107,0.077-2.178,0.363-3.252,0.617
		c-0.117,0.026-0.254,0.126-0.314,0.229c-0.137,0.236-0.1,0.488,0.051,0.714c0.145,0.215,0.346,0.179,0.566,0.132
		c0.843-0.184,1.686-0.363,2.531-0.521c0.305-0.058,0.622-0.11,1.008-0.021c-0.104,0.286-0.168,0.556-0.297,0.789
		c-0.326,0.598-0.668,1.187-1.029,1.765c-0.351,0.561-0.743,1.094-1.098,1.652c-0.189,0.299-0.361,0.615-0.498,0.943
		c-0.308,0.746-0.279,1.492,0.077,2.223c0.229,0.471,0.597,0.773,1.104,0.91c0.425,0.113,0.857,0.119,1.285,0.062
		c0.678-0.09,1.352-0.203,2.023-0.324c0.746-0.135,1.486-0.287,2.23-0.434c0.332-0.064,0.502-0.252,0.498-0.546
		C109.373,77.421,109.096,77.188,108.691,77.265z"/>
	<path fill="#2B2A2A" d="M97.604,79.82c0.24,0.01,0.63,0.026,1.02,0.042c0.057,0.002,0.113,0.003,0.17,0.008
		c0.216,0.021,0.382-0.07,0.49-0.271c0.231-0.424,0.066-1.084-0.488-1.077c-0.045,0.002-0.092-0.005-0.137-0.007
		c-0.778-0.071-1.558-0.137-2.334-0.215l-0.484,1.307C96.395,79.675,96.969,79.741,97.604,79.82"/>
	<path fill="#2B2A2A" d="M97.604,79.82c0.24,0.01,0.63,0.026,1.02,0.042c0.057,0.002,0.113,0.003,0.17,0.008
		c0.216,0.021,0.382-0.07,0.49-0.271c0.231-0.424,0.066-1.084-0.488-1.077c-0.045,0.002-0.092-0.005-0.137-0.007
		c-0.778-0.071-1.558-0.137-2.334-0.215l-0.484,1.307C96.395,79.675,96.969,79.741,97.604,79.82z"/>
	<path fill="#2B2A2A" d="M151.488,83.623c0.417-0.092,0.688-0.565,0.438-0.893c-0.254-0.332-0.361-0.733-0.438-1.138
		c-0.035-0.185-0.08-0.367-0.11-0.553c-0.125-0.744-0.455-1.385-0.988-1.939c-0.308-0.321-0.595-0.666-0.864-1.017
		c-0.175-0.224-0.323-0.472-0.447-0.726c-0.241-0.501-0.131-0.889,0.349-1.193c0.184-0.117,0.407-0.193,0.625-0.242
		c0.196-0.043,0.407-0.027,0.613-0.029c0.36-0.002,0.639-0.25,0.659-0.598c0.015-0.223-0.088-0.392-0.31-0.459
		c-0.153-0.047-0.315-0.062-0.477-0.089c-0.781-0.006-1.484,0.19-2.061,0.718c-0.657,0.6-0.863,1.325-0.539,2.143
		c0.146,0.365,0.348,0.722,0.584,1.041c0.34,0.458,0.725,0.888,1.104,1.314c0.299,0.336,0.494,0.707,0.581,1.137
		c0.069,0.352,0.144,0.697,0.226,1.043c0.104,0.443,0.285,0.854,0.539,1.238C151.09,83.563,151.256,83.673,151.488,83.623"/>
	<path fill="#2B2A2A" d="M151.488,83.623c0.417-0.092,0.688-0.565,0.438-0.893c-0.254-0.332-0.361-0.733-0.438-1.138
		c-0.035-0.185-0.08-0.367-0.11-0.553c-0.125-0.744-0.455-1.385-0.988-1.939c-0.308-0.321-0.595-0.666-0.864-1.017
		c-0.175-0.224-0.323-0.472-0.447-0.726c-0.241-0.501-0.131-0.889,0.349-1.193c0.184-0.117,0.407-0.193,0.625-0.242
		c0.196-0.043,0.407-0.027,0.613-0.029c0.36-0.002,0.639-0.25,0.659-0.598c0.015-0.223-0.088-0.392-0.31-0.459
		c-0.153-0.047-0.315-0.062-0.477-0.089c-0.781-0.006-1.484,0.19-2.061,0.718c-0.657,0.6-0.863,1.325-0.539,2.143
		c0.146,0.365,0.348,0.722,0.584,1.041c0.34,0.458,0.725,0.888,1.104,1.314c0.299,0.336,0.494,0.707,0.581,1.137
		c0.069,0.352,0.144,0.697,0.226,1.043c0.104,0.443,0.285,0.854,0.539,1.238C151.09,83.563,151.256,83.673,151.488,83.623z"/>
	<path fill="#2B2A2A" d="M140.643,68.32c0.297-0.101,0.398-0.231,0.406-0.497c0.016-0.475-0.353-0.779-0.784-0.65
		c-0.267,0.082-0.531,0.17-0.796,0.254c-1.396,0.451-2.795,0.9-4.188,1.355c-0.128,0.042-0.269,0.102-0.358,0.198
		c-0.152,0.168-0.14,0.589-0.008,0.811c0.129,0.218,0.31,0.269,0.623,0.179c0.051-0.015,0.104-0.029,0.154-0.045
		c1.07-0.347,2.141-0.69,3.21-1.037C139.483,68.699,140.065,68.513,140.643,68.32"/>
	<path fill="#2B2A2A" d="M140.643,68.32c0.297-0.101,0.398-0.231,0.406-0.497c0.016-0.475-0.353-0.779-0.784-0.65
		c-0.267,0.082-0.531,0.17-0.796,0.254c-1.396,0.451-2.795,0.9-4.188,1.355c-0.128,0.042-0.269,0.102-0.358,0.198
		c-0.152,0.168-0.14,0.589-0.008,0.811c0.129,0.218,0.31,0.269,0.623,0.179c0.051-0.015,0.104-0.029,0.154-0.045
		c1.07-0.347,2.141-0.69,3.21-1.037C139.483,68.699,140.065,68.513,140.643,68.32z"/>
	<path fill="#2B2A2A" d="M141.329,71.632c-0.058-0.211-0.095-0.43-0.175-0.629c-0.078-0.193-0.18-0.23-0.371-0.173
		c-1.324,0.399-2.646,0.804-3.971,1.21c-0.077,0.024-0.164,0.072-0.215,0.137c-0.141,0.176-0.123,0.629,0.015,0.867
		c0.129,0.217,0.282,0.264,0.603,0.168c1.26-0.383,2.521-0.77,3.78-1.154C141.256,71.978,141.283,71.933,141.329,71.632"/>
	<path fill="#2B2A2A" d="M141.329,71.632c-0.058-0.211-0.095-0.43-0.175-0.629c-0.078-0.193-0.18-0.23-0.371-0.173
		c-1.324,0.399-2.646,0.804-3.971,1.21c-0.077,0.024-0.164,0.072-0.215,0.137c-0.141,0.176-0.123,0.629,0.015,0.867
		c0.129,0.217,0.282,0.264,0.603,0.168c1.26-0.383,2.521-0.77,3.78-1.154C141.256,71.978,141.283,71.933,141.329,71.632z"/>
	<path fill="#2B2A2A" d="M142.139,74.159c-0.136-0.207-0.299-0.243-0.516-0.131c-0.215,0.111-0.422,0.24-0.635,0.357
		c-0.631,0.348-1.278,0.646-1.994,0.733c-0.217,0.024-0.434,0.047-0.65,0.065c-0.188,0.016-0.294,0.128-0.361,0.301
		c-0.086,0.219-0.071,0.434,0.013,0.645c0.076,0.188,0.216,0.289,0.412,0.319c0.431-0.063,0.866-0.11,1.291-0.202
		c0.854-0.183,1.612-0.625,2.368-1.062c0.277-0.161,0.33-0.264,0.257-0.586C142.289,74.446,142.223,74.29,142.139,74.159"/>
	<path fill="#2B2A2A" d="M142.139,74.159c-0.136-0.207-0.299-0.243-0.516-0.131c-0.215,0.111-0.422,0.24-0.635,0.357
		c-0.631,0.348-1.278,0.646-1.994,0.733c-0.217,0.024-0.434,0.047-0.65,0.065c-0.188,0.016-0.294,0.128-0.361,0.301
		c-0.086,0.219-0.071,0.434,0.013,0.645c0.076,0.188,0.216,0.289,0.412,0.319c0.431-0.063,0.866-0.11,1.291-0.202
		c0.854-0.183,1.612-0.625,2.368-1.062c0.277-0.161,0.33-0.264,0.257-0.586C142.289,74.446,142.223,74.29,142.139,74.159z"/>
	<path fill="#2B2A2A" d="M106.44,26.841c-0.199-0.275-0.414-0.525-0.721-0.686c-0.084-0.003-0.168-0.006-0.252-0.009
		c-0.35,0.227-0.428,0.473-0.26,0.856c0.045,0.104,0.108,0.204,0.172,0.299c0.088,0.133,0.184,0.261,0.276,0.388
		c2.097,2.929,4.157,5.884,6.089,8.926c0.454,0.714,0.889,1.44,1.327,2.165l0.537-1.312
		C111.367,33.824,108.928,30.317,106.44,26.841"/>
	<path fill="#2B2A2A" d="M106.44,26.841c-0.199-0.275-0.414-0.525-0.721-0.686c-0.084-0.003-0.168-0.006-0.252-0.009
		c-0.35,0.227-0.428,0.473-0.26,0.856c0.045,0.104,0.108,0.204,0.172,0.299c0.088,0.133,0.184,0.261,0.276,0.388
		c2.097,2.929,4.157,5.884,6.089,8.926c0.454,0.714,0.889,1.44,1.327,2.165l0.537-1.312
		C111.367,33.824,108.928,30.317,106.44,26.841z"/>
	<path fill="#2B2A2A" d="M89.544,77.843c-0.207-0.51-0.424-1.02-0.683-1.504c-1.152-2.156-2.295-4.314-3.486-6.449
		c-3.223-5.768-6.598-11.444-10.209-16.981c-4.326-6.636-7.281-10.862-11.991-17.231c-0.211-0.283-0.529-0.311-0.827-0.08
		c-0.243,0.188-0.279,0.379-0.119,0.636c0.044,0.069,0.096,0.133,0.145,0.198c1.629,2.22,1.531,2.275,3.152,4.5
		c4.546,6.235,8.901,12.601,12.895,19.205c3.133,5.183,6.16,10.424,8.991,15.774c0.363,0.685,0.686,1.392,1.022,2.093
		c0.074,0.155,0.121,0.321,0.201,0.538c-0.152-0.006-0.243-0.006-0.335-0.013c-0.614-0.045-1.227-0.1-1.842-0.137
		c-1.274-0.077-2.542-0.021-3.807,0.164c-2.145,0.312-4.245,0.832-6.345,1.349c-0.184,0.046-0.364,0.14-0.525,0.244
		c-0.169,0.108-0.283,0.274-0.229,0.493c0.058,0.233,0.25,0.332,0.463,0.334c0.253,0.007,0.512-0.017,0.759-0.07
		c1.31-0.291,2.616-0.605,3.928-0.893c1.133-0.248,2.277-0.437,3.434-0.521c1.223-0.09,2.442-0.018,3.661,0.089
		c0.427,0.036,0.862,0.045,1.288,0.013c0.559-0.041,0.782-0.34,0.689-0.893C89.725,78.408,89.655,78.116,89.544,77.843"/>
	<path fill="#2B2A2A" d="M89.544,77.843c-0.207-0.51-0.424-1.02-0.683-1.504c-1.152-2.156-2.295-4.314-3.486-6.449
		c-3.223-5.768-6.598-11.444-10.209-16.981c-4.326-6.636-7.281-10.862-11.991-17.231c-0.211-0.283-0.529-0.311-0.827-0.08
		c-0.243,0.188-0.279,0.379-0.119,0.636c0.044,0.069,0.096,0.133,0.145,0.198c1.629,2.22,1.531,2.275,3.152,4.5
		c4.546,6.235,8.901,12.601,12.895,19.205c3.133,5.183,6.16,10.424,8.991,15.774c0.363,0.685,0.686,1.392,1.022,2.093
		c0.074,0.155,0.121,0.321,0.201,0.538c-0.152-0.006-0.243-0.006-0.335-0.013c-0.614-0.045-1.227-0.1-1.842-0.137
		c-1.274-0.077-2.542-0.021-3.807,0.164c-2.145,0.312-4.245,0.832-6.345,1.349c-0.184,0.046-0.364,0.14-0.525,0.244
		c-0.169,0.108-0.283,0.274-0.229,0.493c0.058,0.233,0.25,0.332,0.463,0.334c0.253,0.007,0.512-0.017,0.759-0.07
		c1.31-0.291,2.616-0.605,3.928-0.893c1.133-0.248,2.277-0.437,3.434-0.521c1.223-0.09,2.442-0.018,3.661,0.089
		c0.427,0.036,0.862,0.045,1.288,0.013c0.559-0.041,0.782-0.34,0.689-0.893C89.725,78.408,89.655,78.116,89.544,77.843z"/>
	<path fill="#2B2A2A" d="M103.491,43.069c-3.312-4.969-6.811-9.805-10.309-14.641C93.128,28.355,93.069,28.28,93,28.22
		c-0.212-0.19-0.532-0.198-0.741-0.029c-0.194,0.158-0.24,0.423-0.105,0.677c0.068,0.126,0.157,0.243,0.242,0.36
		c2.806,3.88,5.597,7.77,8.323,11.705c2.484,3.584,4.806,7.255,6.976,11.008l0.531-1.299
		C106.724,48.078,105.146,45.554,103.491,43.069"/>
	<path fill="#2B2A2A" d="M103.491,43.069c-3.312-4.969-6.811-9.805-10.309-14.641C93.128,28.355,93.069,28.28,93,28.22
		c-0.212-0.19-0.532-0.198-0.741-0.029c-0.194,0.158-0.24,0.423-0.105,0.677c0.068,0.126,0.157,0.243,0.242,0.36
		c2.806,3.88,5.597,7.77,8.323,11.705c2.484,3.584,4.806,7.255,6.976,11.008l0.531-1.299
		C106.724,48.078,105.146,45.554,103.491,43.069z"/>
	<path fill="#2B2A2A" d="M95.896,78.525c-0.485-0.05-0.971-0.15-1.437-0.287c-0.594-0.176-0.677-0.399-0.369-0.908
		c0.234-0.381,0.501-0.739,0.761-1.106c0.443-0.627,0.912-1.235,1.332-1.875c0.22-0.336,0.399-0.707,0.528-1.082
		c0.257-0.754,0.02-1.381-0.626-1.799c-0.388-0.25-0.822-0.381-1.283-0.436c-1.19-0.145-2.195,0.314-3.16,0.907
		c-0.037,0.022-0.069,0.055-0.099,0.083c-0.199,0.199-0.251,0.459-0.134,0.666c0.126,0.221,0.394,0.324,0.68,0.238
		c0.154-0.047,0.3-0.125,0.442-0.203c0.439-0.234,0.881-0.469,1.383-0.551c0.505-0.082,1.003-0.054,1.459,0.197
		c0.25,0.137,0.312,0.26,0.236,0.521c-0.059,0.201-0.136,0.404-0.246,0.582c-0.244,0.397-0.504,0.787-0.777,1.17
		c-0.391,0.548-0.807,1.076-1.188,1.629c-0.21,0.307-0.396,0.635-0.541,0.971c-0.259,0.602-0.107,1.146,0.374,1.585
		c0.184,0.169,0.424,0.296,0.656,0.403c0.445,0.205,0.934,0.294,1.418,0.353c0.318,0.038,0.641,0.073,0.969,0.106l0.463-1.094
		C96.457,78.574,96.176,78.554,95.896,78.525"/>
	<path fill="#2B2A2A" d="M95.896,78.525c-0.485-0.05-0.971-0.15-1.437-0.287c-0.594-0.176-0.677-0.399-0.369-0.908
		c0.234-0.381,0.501-0.739,0.761-1.106c0.443-0.627,0.912-1.235,1.332-1.875c0.22-0.336,0.399-0.707,0.528-1.082
		c0.257-0.754,0.02-1.381-0.626-1.799c-0.388-0.25-0.822-0.381-1.283-0.436c-1.19-0.145-2.195,0.314-3.16,0.907
		c-0.037,0.022-0.069,0.055-0.099,0.083c-0.199,0.199-0.251,0.459-0.134,0.666c0.126,0.221,0.394,0.324,0.68,0.238
		c0.154-0.047,0.3-0.125,0.442-0.203c0.439-0.234,0.881-0.469,1.383-0.551c0.505-0.082,1.003-0.054,1.459,0.197
		c0.25,0.137,0.312,0.26,0.236,0.521c-0.059,0.201-0.136,0.404-0.246,0.582c-0.244,0.397-0.504,0.787-0.777,1.17
		c-0.391,0.548-0.807,1.076-1.188,1.629c-0.21,0.307-0.396,0.635-0.541,0.971c-0.259,0.602-0.107,1.146,0.374,1.585
		c0.184,0.169,0.424,0.296,0.656,0.403c0.445,0.205,0.934,0.294,1.418,0.353c0.318,0.038,0.641,0.073,0.969,0.106l0.463-1.094
		C96.457,78.574,96.176,78.554,95.896,78.525z"/>
	<path fill="#FFFFFF" d="M174.84,96.347c0.473-0.207,0.885-0.486,1.235-0.84c0.351-0.354,0.624-0.765,0.823-1.23
		c0.201-0.469,0.301-0.965,0.301-1.493v-0.022c0-0.526-0.1-1.024-0.301-1.492c-0.199-0.467-0.473-0.875-0.818-1.227
		c-0.346-0.349-0.754-0.626-1.225-0.828c-0.473-0.205-0.979-0.306-1.521-0.306c-0.543,0-1.051,0.103-1.525,0.31
		s-0.887,0.487-1.236,0.842c-0.35,0.354-0.623,0.764-0.823,1.229c-0.2,0.468-0.3,0.966-0.3,1.494v0.021c0,0.527,0.1,1.025,0.3,1.492
		c0.2,0.469,0.474,0.877,0.819,1.228c0.346,0.349,0.754,0.626,1.225,0.829s0.979,0.305,1.52,0.305
		C173.856,96.656,174.364,96.554,174.84,96.347 M171.944,95.998c-0.423-0.182-0.787-0.43-1.099-0.743
		c-0.31-0.313-0.553-0.682-0.728-1.103s-0.263-0.871-0.263-1.349v-0.021c0-0.479,0.09-0.93,0.269-1.354
		c0.179-0.426,0.423-0.795,0.733-1.108c0.31-0.313,0.678-0.563,1.102-0.75c0.426-0.187,0.883-0.278,1.376-0.278
		c0.492,0,0.949,0.092,1.37,0.273s0.787,0.43,1.098,0.744c0.31,0.312,0.554,0.681,0.728,1.102c0.176,0.422,0.263,0.871,0.263,1.35
		v0.021c0,0.479-0.089,0.93-0.267,1.354c-0.181,0.424-0.425,0.795-0.734,1.106c-0.311,0.315-0.678,0.563-1.102,0.75
		c-0.427,0.187-0.884,0.278-1.378,0.278C172.821,96.272,172.364,96.181,171.944,95.998 M171.762,94.698h0.771v-1.402h0.824h0.022
		l0.982,1.402h0.922l-1.092-1.531c0.277-0.078,0.504-0.22,0.68-0.423s0.262-0.469,0.262-0.797v-0.022
		c0-0.355-0.111-0.638-0.332-0.845c-0.291-0.293-0.703-0.438-1.229-0.438h-1.81V94.698z M172.532,92.621v-1.284h1.007
		c0.25,0,0.446,0.055,0.59,0.16c0.143,0.107,0.213,0.266,0.213,0.471v0.021c0,0.193-0.07,0.348-0.213,0.461
		c-0.144,0.114-0.34,0.171-0.59,0.171H172.532z"/>
</g>
</svg>
