<?xml version="1.0" encoding="utf-8"?>
<!-- Generator: Adobe Illustrator 16.0.0, SVG Export Plug-In . SVG Version: 6.00 Build 0)  -->
<!DOCTYPE svg PUBLIC "-//W3C//DTD SVG 1.1//EN" "http://www.w3.org/Graphics/SVG/1.1/DTD/svg11.dtd">
<svg version="1.1" id="Layer_1" xmlns="http://www.w3.org/2000/svg" xmlns:xlink="http://www.w3.org/1999/xlink" x="0px" y="0px"
	 width="200.667px" height="109px" viewBox="0 0 200.667 109" enable-background="new 0 0 200.667 109" xml:space="preserve">
<g>
	<path fill="none" d="M97.761,47.099c-1.88-4.878-4.136-9.564-6.705-13.931l-0.264-0.413l-0.001,0.002
		c-0.78-1.308-1.589-2.591-2.409-3.821c-1.916-2.872-3.97-5.713-5.959-8.461l-0.052-0.07c-0.04-0.056-0.084-0.116-0.142-0.164
		c-0.208-0.186-0.545-0.198-0.761-0.025c-0.209,0.172-0.259,0.457-0.124,0.708c0.041,0.077,0.094,0.148,0.16,0.239
		c1.548,2.141,3.208,4.449,4.846,6.812c1.434,2.071,2.798,4.222,4.053,6.392l0.227,0.374c2.03,3.557,3.84,7.275,5.383,11.063
		c0.257,0.634,0.499,1.272,0.738,1.915l0.325,0.859c-0.033-0.001-0.064-0.002-0.097-0.002l-0.203-0.003
		c-0.397,0-0.703,0.025-0.989,0.081c-0.72,0.14-1.295,0.519-1.711,0.83c-0.098,0.068-0.159,0.158-0.193,0.219
		c-0.087,0.155-0.097,0.335-0.027,0.492c0.072,0.158,0.216,0.27,0.397,0.308c0.043,0.009,0.088,0.013,0.132,0.013
		c0.132,0,0.261-0.04,0.385-0.122l0.076-0.051c0.134-0.085,0.267-0.176,0.402-0.258c0.334-0.202,0.66-0.314,0.996-0.338
		c0.167-0.013,0.336-0.015,0.504-0.017l0.452-0.008c0.136-0.001,0.272-0.003,0.407-0.013c0.488-0.043,0.733-0.323,0.711-0.811
		c-0.007-0.156-0.039-0.321-0.092-0.475C98.078,47.978,97.929,47.534,97.761,47.099z"/>
	<path fill="none" d="M105.338,41.903c-0.158-0.089-0.351-0.127-0.542-0.111l-2.354,0.175l-0.128-0.325
		c-1.04-2.643-2.308-5.449-3.879-8.58c-1.451-2.894-2.815-5.371-4.173-7.579l-0.298-0.472l-0.006,0.012
		c-1.268-2.014-2.616-3.932-3.783-5.562c-0.118-0.165-0.27-0.35-0.503-0.471l-0.333-0.036l-0.066,0.043
		c-0.307,0.199-0.39,0.471-0.245,0.803c0.031,0.075,0.076,0.145,0.123,0.215c0.042,0.062,0.086,0.123,0.163,0.228
		c0.999,1.394,2.299,3.236,3.504,5.132c0.204,0.322,0.401,0.647,0.597,0.972l0.401,0.635c1.159,1.938,2.292,4.009,3.457,6.318
		c1.63,3.229,2.936,6.114,3.995,8.817c-0.867,0.134-1.75,0.364-2.693,0.7c-0.114,0.04-0.225,0.108-0.337,0.208
		c-0.164,0.141-0.219,0.362-0.142,0.575c0.077,0.213,0.262,0.348,0.481,0.348c0.141,0,0.277-0.022,0.397-0.063
		c0.927-0.311,1.691-0.511,2.402-0.625c0.101-0.017,0.199-0.03,0.312-0.046l0.212,0.604c0.2,0.565,0.399,1.128,0.583,1.701
		c0.287,0.888,0.573,1.839,0.63,2.83c0.006,0.099,0.044,0.198,0.105,0.275c0.121,0.15,0.339,0.205,0.504,0.205
		c0.09,0,0.172-0.015,0.244-0.043c0.318-0.129,0.296-0.438,0.285-0.609c-0.039-0.526-0.132-1.073-0.288-1.676
		c-0.309-1.197-0.71-2.344-1.101-3.42c0.207-0.018,0.406-0.037,0.608-0.05l0.545-0.038c0.295-0.02,0.589-0.039,0.885-0.065
		c0.17-0.018,0.341-0.074,0.478-0.161c0.163-0.104,0.253-0.26,0.249-0.431C105.623,42.162,105.516,42,105.338,41.903z"/>
	<path fill="none" d="M91.172,48.999l-0.805,0.156c-0.369,0.071-0.739,0.145-1.108,0.213c-0.333,0.061-0.575,0.082-0.822,0.063
		c-0.094-0.006-0.128-0.034-0.162-0.124c-0.066-0.176-0.063-0.338,0.009-0.494c0.087-0.184,0.188-0.368,0.301-0.544
		c0.117-0.183,0.239-0.363,0.362-0.542c0.113-0.167,0.225-0.333,0.333-0.5c0.224-0.339,0.451-0.712,0.598-1.127
		c0.073-0.205,0.116-0.4,0.129-0.575c0.036-0.446-0.235-0.809-0.674-0.906c-0.185-0.039-0.378-0.051-0.557-0.041
		c-0.57,0.039-1.122,0.172-1.656,0.3l-0.268,0.064c-0.138,0.037-0.27,0.136-0.335,0.252c-0.124,0.208-0.111,0.458,0.038,0.681
		c0.085,0.126,0.245,0.254,0.618,0.175c0.474-0.103,0.948-0.206,1.426-0.295c0.062-0.012,0.125-0.022,0.191-0.03
		c-0.014,0.038-0.03,0.073-0.049,0.108c-0.186,0.341-0.381,0.678-0.587,1.007c-0.102,0.164-0.209,0.323-0.319,0.482
		c-0.106,0.155-0.212,0.313-0.313,0.472c-0.124,0.197-0.228,0.393-0.307,0.585c-0.207,0.497-0.19,0.999,0.05,1.492
		c0.167,0.34,0.436,0.562,0.8,0.659c0.162,0.044,0.335,0.066,0.514,0.066c0.109,0,0.218-0.008,0.326-0.022
		c0.394-0.054,0.787-0.119,1.18-0.191c0.301-0.053,0.602-0.113,0.902-0.173l0.391-0.078c0.31-0.061,0.494-0.272,0.491-0.566
		C91.864,49.18,91.579,48.923,91.172,48.999z"/>
	<path fill="none" d="M80.165,49.479c-0.112-0.275-0.249-0.599-0.411-0.905l-0.286-0.536c-0.579-1.09-1.158-2.179-1.759-3.255
		c-2.044-3.666-4.002-6.932-5.986-9.983c-2.572-3.953-3.968-6.012-6.687-9.697c-0.2-0.273-0.555-0.319-0.844-0.096
		c-0.241,0.191-0.288,0.447-0.125,0.707c0.021,0.033,0.044,0.064,0.094,0.13c0.486,0.664,0.708,0.995,0.936,1.336
		c0.219,0.327,0.444,0.664,0.909,1.304c2.696,3.707,4.915,7.044,7.195,10.827c2.022,3.351,3.743,6.375,5.259,9.246
		c0.157,0.3,0.302,0.606,0.447,0.913l0.114,0.241l-0.255-0.02c-0.208-0.017-0.417-0.033-0.628-0.047
		c-0.758-0.045-1.52-0.011-2.28,0.1c-1.252,0.183-2.492,0.488-3.74,0.796c-0.122,0.031-0.248,0.088-0.383,0.175
		c-0.207,0.133-0.297,0.344-0.242,0.566c0.061,0.233,0.256,0.381,0.511,0.386h0.042c0.159,0,0.314-0.015,0.461-0.048
		c0.358-0.08,0.716-0.162,1.073-0.246c0.409-0.094,0.817-0.189,1.226-0.279c0.718-0.157,1.364-0.255,1.977-0.3
		c0.719-0.055,1.447-0.004,2.104,0.049c0.263,0.024,0.53,0.029,0.794,0.009c0.234-0.017,0.41-0.099,0.523-0.242
		c0.114-0.146,0.15-0.339,0.111-0.575C80.279,49.826,80.229,49.645,80.165,49.479z"/>
	<path fill="none" d="M110.18,44.12c0.266-0.086,0.4-0.252,0.408-0.506c0.006-0.18-0.055-0.343-0.17-0.462
		c-0.151-0.158-0.382-0.214-0.603-0.148c-0.128,0.037-0.254,0.077-0.381,0.116l-2.484,0.778c-0.095,0.03-0.216,0.078-0.307,0.175
		c-0.18,0.189-0.165,0.549-0.039,0.754c0.124,0.201,0.3,0.242,0.426,0.242c0.064,0,0.134-0.008,0.246-0.041l2.18-0.679
		C109.699,44.275,109.941,44.198,110.18,44.12z"/>
	<path fill="none" d="M85.349,49.801l-0.322-0.029c-0.337-0.027-0.542,0.021-0.879-0.012l-0.305-0.019
		c-0.048-0.005-0.096-0.009-0.145-0.014c-0.244-0.024-0.502-0.077-0.767-0.156c-0.068-0.022-0.107-0.038-0.124-0.041
		c0.007-0.022,0.023-0.057,0.056-0.112c0.104-0.171,0.218-0.334,0.333-0.496l0.353-0.5c0.169-0.24,0.34-0.476,0.497-0.722
		c0.135-0.207,0.248-0.443,0.328-0.682c0.179-0.536,0.012-1.02-0.456-1.327c-0.24-0.158-0.513-0.253-0.835-0.291
		c-0.78-0.095-1.435,0.233-1.965,0.566c-0.029,0.02-0.057,0.044-0.093,0.079c-0.194,0.196-0.239,0.464-0.116,0.685
		c0.13,0.231,0.397,0.341,0.681,0.254c0.107-0.034,0.206-0.086,0.295-0.135c0.212-0.116,0.453-0.249,0.704-0.291
		c0.245-0.041,0.471-0.023,0.678,0.097c-0.034,0.113-0.071,0.206-0.113,0.276c-0.136,0.224-0.28,0.444-0.433,0.661
		c-0.096,0.137-0.195,0.272-0.295,0.41c-0.128,0.176-0.258,0.352-0.38,0.533c-0.131,0.192-0.242,0.395-0.33,0.603
		c-0.185,0.438-0.088,0.864,0.272,1.199c0.137,0.125,0.305,0.212,0.437,0.276c0.298,0.14,0.613,0.192,0.88,0.225
		c0.181,0.021,0.365,0.042,0.552,0.061l0.876,0.086l0.698,0.027c0.196,0,0.359-0.096,0.457-0.27c0.117-0.206,0.12-0.466,0.005-0.667
		C85.793,49.903,85.616,49.802,85.349,49.801z"/>
	<path fill="none" d="M110.693,46.017l0.011-0.057l-0.042-0.158c-0.023-0.093-0.047-0.184-0.083-0.271
		c-0.096-0.227-0.269-0.261-0.364-0.261c-0.047,0-0.096,0.006-0.151,0.023c-0.751,0.219-1.502,0.439-2.256,0.664
		c-0.071,0.022-0.171,0.067-0.244,0.153c-0.159,0.192-0.137,0.565-0.011,0.77c0.096,0.158,0.233,0.239,0.406,0.239
		c0.066,0,0.136-0.011,0.221-0.037l2.148-0.634C110.59,46.371,110.655,46.246,110.693,46.017z"/>
	<path fill="none" d="M116.821,52.199c0.043-0.139,0.016-0.281-0.072-0.388c-0.141-0.167-0.207-0.386-0.256-0.595
		c-0.01-0.042-0.023-0.084-0.035-0.125c-0.02-0.061-0.039-0.116-0.039-0.168c-0.014-0.559-0.07-0.972-0.697-1.213
		c-0.064-0.026-0.12-0.043-0.169-0.058c-0.13-0.042-0.19-0.06-0.289-0.177c-0.093-0.111-0.18-0.241-0.26-0.387
		c-0.122-0.231-0.084-0.387,0.13-0.54c0.075-0.056,0.183-0.103,0.31-0.139c0.057-0.016,0.121-0.02,0.175-0.022l0.148-0.005
		c0.273-0.016,0.476-0.221,0.478-0.49c0.005-0.193-0.102-0.335-0.282-0.382c-0.067-0.017-0.139-0.026-0.208-0.034l-0.127-0.006
		c-0.509,0.021-0.907,0.188-1.219,0.506c-0.404,0.412-0.498,0.895-0.273,1.396c0.097,0.223,0.204,0.397,0.351,0.583
		c0.172,0.214,0.41,0.341,0.584,0.429c0.049,0.028,0.092,0.05,0.126,0.072c0.281,0.178,0.308,0.294,0.304,0.536
		c-0.003,0.165,0.05,0.314,0.103,0.459c0.021,0.059,0.042,0.116,0.058,0.175c0.073,0.261,0.194,0.51,0.36,0.744
		c0.12,0.163,0.255,0.193,0.349,0.187c0.028-0.001,0.06-0.006,0.089-0.014C116.63,52.498,116.769,52.365,116.821,52.199z"/>
	<path fill="none" d="M111.327,47.456c-0.122-0.179-0.273-0.216-0.377-0.216c-0.077,0-0.157,0.022-0.235,0.061
		c-0.074,0.037-0.147,0.077-0.22,0.118l-0.148,0.082c-0.299,0.16-0.657,0.33-1.038,0.375c-0.12,0.014-0.239,0.026-0.36,0.034
		c-0.136,0.012-0.316,0.076-0.42,0.324c-0.069,0.172-0.066,0.361,0.01,0.541c0.052,0.129,0.169,0.291,0.428,0.33l0.036,0.006
		l0.258-0.035c0.176-0.023,0.353-0.048,0.526-0.084c0.517-0.106,0.966-0.359,1.412-0.61c0.26-0.145,0.335-0.312,0.269-0.593
		C111.443,47.677,111.396,47.562,111.327,47.456z"/>
	<path d="M125.326,40.546c-1.197-8.146-7.916-25.836-16.704-33.199c-6.14-5.143-16.494-0.881-23.043,1.852
		c-12.736,5.315-21.141,10.699-32.362,17.678c-13.893,8.637-8.658,19.798,0.058,24.469c13.954,7.48,35.589,12.113,57.92,11.217
		C131.414,61.748,126.931,51.46,125.326,40.546z M80.204,50.61c-0.113,0.144-0.289,0.226-0.523,0.242
		c-0.264,0.02-0.531,0.015-0.794-0.009c-0.656-0.053-1.385-0.104-2.104-0.049c-0.612,0.044-1.259,0.143-1.977,0.3
		c-0.409,0.09-0.817,0.186-1.226,0.279c-0.357,0.083-0.715,0.166-1.073,0.246c-0.147,0.033-0.302,0.048-0.461,0.048h-0.042
		c-0.254-0.005-0.45-0.152-0.511-0.386c-0.056-0.222,0.035-0.433,0.242-0.566c0.135-0.086,0.261-0.144,0.383-0.175
		c1.249-0.308,2.488-0.613,3.74-0.796c0.76-0.111,1.522-0.146,2.28-0.1c0.211,0.014,0.42,0.03,0.628,0.047l0.255,0.02l-0.114-0.241
		c-0.145-0.307-0.29-0.613-0.447-0.913c-1.516-2.871-3.237-5.895-5.259-9.246c-2.28-3.783-4.499-7.12-7.195-10.827
		c-0.465-0.641-0.69-0.977-0.909-1.304c-0.228-0.341-0.45-0.672-0.936-1.336c-0.049-0.066-0.073-0.098-0.094-0.13
		c-0.162-0.26-0.116-0.515,0.125-0.707c0.289-0.223,0.644-0.177,0.844,0.096c2.718,3.685,4.115,5.744,6.687,9.697
		c1.983,3.051,3.941,6.317,5.986,9.983c0.601,1.076,1.18,2.166,1.759,3.255l0.286,0.536c0.162,0.307,0.298,0.63,0.411,0.905
		c0.065,0.166,0.115,0.347,0.15,0.556C80.354,50.271,80.317,50.464,80.204,50.61z M85.891,50.745
		c-0.098,0.174-0.261,0.27-0.457,0.27l-0.698-0.027l-0.876-0.086c-0.187-0.02-0.371-0.04-0.552-0.061
		c-0.267-0.033-0.582-0.085-0.88-0.225c-0.132-0.064-0.3-0.151-0.437-0.276c-0.361-0.335-0.458-0.76-0.272-1.199
		c0.088-0.208,0.199-0.411,0.33-0.603c0.122-0.181,0.251-0.357,0.38-0.533c0.1-0.137,0.199-0.273,0.295-0.41
		c0.152-0.217,0.297-0.437,0.433-0.661c0.042-0.071,0.079-0.163,0.113-0.276c-0.207-0.12-0.433-0.137-0.678-0.097
		c-0.251,0.042-0.492,0.175-0.704,0.291c-0.089,0.049-0.188,0.102-0.295,0.135c-0.284,0.086-0.551-0.023-0.681-0.254
		c-0.123-0.22-0.078-0.489,0.116-0.685c0.036-0.034,0.063-0.059,0.093-0.079c0.53-0.333,1.185-0.661,1.965-0.566
		c0.322,0.038,0.595,0.133,0.835,0.291c0.468,0.307,0.635,0.791,0.456,1.327c-0.08,0.238-0.192,0.475-0.328,0.682
		c-0.157,0.246-0.328,0.481-0.497,0.722l-0.353,0.5c-0.115,0.162-0.229,0.324-0.333,0.496c-0.033,0.055-0.048,0.09-0.056,0.112
		c0.017,0.002,0.056,0.019,0.124,0.041c0.265,0.079,0.523,0.132,0.767,0.156c0.049,0.005,0.097,0.008,0.145,0.014l0.305,0.019
		c0.337,0.033,0.542-0.016,0.879,0.012l0.322,0.029c0.267,0.001,0.444,0.102,0.546,0.277C86.011,50.279,86.008,50.54,85.891,50.745z
		 M91.378,50.132l-0.391,0.078c-0.3,0.06-0.601,0.12-0.902,0.173c-0.393,0.072-0.786,0.137-1.18,0.191
		c-0.108,0.014-0.217,0.022-0.326,0.022c-0.179,0-0.353-0.022-0.514-0.066c-0.364-0.096-0.633-0.318-0.8-0.659
		c-0.24-0.493-0.256-0.995-0.05-1.492c0.079-0.193,0.183-0.388,0.307-0.585c0.101-0.159,0.207-0.317,0.313-0.472
		c0.109-0.159,0.217-0.318,0.319-0.482c0.206-0.329,0.401-0.666,0.587-1.007c0.02-0.036,0.036-0.071,0.049-0.108
		c-0.066,0.008-0.129,0.018-0.191,0.03c-0.478,0.089-0.953,0.192-1.426,0.295c-0.373,0.08-0.532-0.048-0.618-0.175
		c-0.148-0.223-0.162-0.472-0.038-0.681c0.065-0.116,0.198-0.215,0.335-0.252l0.268-0.064c0.534-0.128,1.085-0.261,1.656-0.3
		c0.178-0.011,0.372,0.001,0.557,0.041c0.439,0.098,0.709,0.46,0.674,0.906c-0.013,0.175-0.056,0.37-0.129,0.575
		c-0.147,0.415-0.374,0.788-0.598,1.127c-0.108,0.167-0.22,0.333-0.333,0.5c-0.123,0.18-0.245,0.36-0.362,0.542
		c-0.113,0.176-0.214,0.36-0.301,0.544c-0.072,0.156-0.075,0.318-0.009,0.494c0.034,0.09,0.068,0.118,0.162,0.124
		c0.247,0.019,0.489-0.003,0.822-0.063c0.369-0.068,0.739-0.142,1.108-0.213l0.805-0.156c0.406-0.075,0.692,0.182,0.697,0.568
		C91.873,49.86,91.688,50.071,91.378,50.132z M97.608,49.707c-0.135,0.01-0.271,0.012-0.407,0.013l-0.452,0.008
		c-0.168,0.002-0.337,0.003-0.504,0.017c-0.336,0.023-0.661,0.136-0.996,0.338c-0.135,0.082-0.268,0.172-0.402,0.258l-0.076,0.051
		c-0.124,0.082-0.253,0.122-0.385,0.122c-0.044,0-0.088-0.003-0.132-0.013c-0.181-0.038-0.325-0.15-0.397-0.308
		c-0.07-0.156-0.061-0.337,0.027-0.492c0.034-0.062,0.095-0.151,0.193-0.219c0.416-0.311,0.991-0.69,1.711-0.83
		c0.287-0.056,0.592-0.081,0.989-0.081l0.203,0.003c0.033,0,0.063,0.001,0.097,0.002l-0.325-0.859
		c-0.24-0.642-0.481-1.281-0.738-1.915c-1.543-3.788-3.353-7.506-5.383-11.063l-0.227-0.374c-1.255-2.17-2.619-4.321-4.053-6.392
		c-1.638-2.363-3.297-4.671-4.846-6.812c-0.066-0.09-0.119-0.162-0.16-0.239c-0.135-0.252-0.085-0.536,0.124-0.708
		c0.215-0.173,0.553-0.16,0.761,0.025c0.057,0.048,0.102,0.108,0.142,0.164l0.052,0.07c1.989,2.748,4.043,5.589,5.959,8.461
		c0.82,1.229,1.629,2.513,2.409,3.821l0.001-0.002l0.264,0.413c2.569,4.367,4.824,9.053,6.705,13.931
		c0.168,0.436,0.317,0.879,0.466,1.323c0.053,0.154,0.085,0.318,0.092,0.475C98.341,49.384,98.096,49.664,97.608,49.707z
		 M105.378,42.768c-0.137,0.087-0.308,0.143-0.478,0.161c-0.296,0.026-0.59,0.046-0.885,0.065l-0.545,0.038
		c-0.203,0.013-0.402,0.032-0.608,0.05c0.391,1.076,0.792,2.223,1.101,3.42c0.156,0.603,0.249,1.15,0.288,1.676
		c0.011,0.171,0.033,0.48-0.285,0.609c-0.071,0.028-0.154,0.043-0.244,0.043c-0.166,0-0.384-0.054-0.504-0.205
		c-0.061-0.077-0.1-0.176-0.105-0.275c-0.057-0.991-0.343-1.942-0.63-2.83c-0.185-0.573-0.384-1.136-0.583-1.701l-0.212-0.604
		c-0.113,0.016-0.211,0.029-0.312,0.046c-0.711,0.113-1.475,0.313-2.402,0.625c-0.12,0.041-0.257,0.063-0.397,0.063
		c-0.219,0-0.404-0.135-0.481-0.348c-0.078-0.213-0.022-0.435,0.142-0.575c0.113-0.1,0.224-0.167,0.337-0.208
		c0.943-0.336,1.826-0.566,2.693-0.7c-1.059-2.703-2.365-5.587-3.995-8.817c-1.164-2.309-2.298-4.38-3.457-6.318l-0.401-0.635
		c-0.196-0.325-0.393-0.649-0.597-0.972c-1.205-1.896-2.505-3.739-3.504-5.132c-0.077-0.105-0.121-0.167-0.163-0.228
		c-0.046-0.071-0.091-0.141-0.123-0.215c-0.145-0.333-0.062-0.604,0.245-0.803l0.066-0.043l0.333,0.036
		c0.233,0.122,0.385,0.307,0.503,0.471c1.167,1.63,2.515,3.549,3.783,5.562l0.006-0.012l0.298,0.472
		c1.358,2.208,2.723,4.685,4.173,7.579c1.571,3.131,2.84,5.937,3.879,8.58l0.128,0.325l2.354-0.175
		c0.191-0.016,0.384,0.022,0.542,0.111c0.177,0.097,0.285,0.259,0.289,0.434C105.632,42.508,105.541,42.664,105.378,42.768z
		 M107.031,45.069c-0.126,0-0.303-0.041-0.426-0.242c-0.126-0.205-0.142-0.565,0.039-0.754c0.09-0.097,0.212-0.145,0.307-0.175
		l2.484-0.778c0.126-0.039,0.253-0.08,0.381-0.116c0.221-0.065,0.451-0.009,0.603,0.148c0.115,0.119,0.176,0.282,0.17,0.462
		c-0.008,0.254-0.142,0.42-0.408,0.506c-0.238,0.078-0.48,0.155-0.723,0.229l-2.18,0.679
		C107.165,45.061,107.096,45.069,107.031,45.069z M107.958,47.118c-0.173,0-0.31-0.081-0.406-0.239
		c-0.126-0.205-0.148-0.578,0.011-0.77c0.072-0.086,0.172-0.13,0.244-0.153c0.754-0.224,1.505-0.444,2.256-0.664
		c0.056-0.017,0.104-0.023,0.151-0.023c0.095,0,0.268,0.034,0.364,0.261c0.036,0.087,0.06,0.179,0.083,0.271l0.042,0.158
		l-0.011,0.057c-0.038,0.229-0.103,0.354-0.366,0.431l-2.148,0.634C108.094,47.107,108.024,47.118,107.958,47.118z M111.199,48.38
		c-0.446,0.25-0.895,0.504-1.412,0.61c-0.174,0.036-0.35,0.061-0.526,0.084l-0.258,0.035l-0.036-0.006
		c-0.258-0.039-0.375-0.201-0.428-0.33c-0.076-0.18-0.079-0.369-0.01-0.541c0.104-0.248,0.284-0.312,0.42-0.324
		c0.121-0.008,0.24-0.02,0.36-0.034c0.381-0.045,0.739-0.214,1.038-0.375l0.148-0.082c0.073-0.041,0.146-0.081,0.22-0.118
		c0.079-0.039,0.158-0.061,0.235-0.061c0.104,0,0.255,0.038,0.377,0.216c0.068,0.106,0.116,0.221,0.14,0.331
		C111.534,48.068,111.459,48.236,111.199,48.38z M116.022,52.37c-0.167-0.234-0.288-0.483-0.36-0.744
		c-0.017-0.059-0.038-0.117-0.058-0.175c-0.052-0.145-0.106-0.294-0.103-0.459c0.004-0.242-0.022-0.358-0.304-0.536
		c-0.034-0.021-0.077-0.044-0.126-0.072c-0.174-0.088-0.412-0.215-0.584-0.429c-0.147-0.185-0.254-0.359-0.351-0.583
		c-0.225-0.501-0.131-0.983,0.273-1.396c0.312-0.318,0.71-0.484,1.219-0.506l0.127,0.006c0.069,0.008,0.14,0.017,0.208,0.034
		c0.18,0.047,0.287,0.189,0.282,0.382c-0.002,0.269-0.205,0.474-0.478,0.49l-0.148,0.005c-0.055,0.002-0.119,0.006-0.175,0.022
		c-0.127,0.036-0.234,0.083-0.31,0.139c-0.214,0.153-0.252,0.309-0.13,0.54c0.08,0.146,0.167,0.276,0.26,0.387
		c0.099,0.117,0.159,0.136,0.289,0.177c0.049,0.015,0.105,0.031,0.169,0.058c0.627,0.241,0.683,0.654,0.697,1.213
		c0,0.052,0.019,0.108,0.039,0.168c0.012,0.041,0.025,0.083,0.035,0.125c0.049,0.208,0.115,0.428,0.256,0.595
		c0.088,0.107,0.115,0.25,0.072,0.388c-0.053,0.166-0.191,0.299-0.361,0.343c-0.029,0.008-0.061,0.013-0.089,0.014
		C116.277,52.562,116.142,52.532,116.022,52.37z M118.159,54.422c-0.066,0.261-0.241,0.476-0.482,0.59
		c-0.048,0.023-0.097,0.044-0.146,0.063l-0.125,0.054l-0.422-0.073l-0.14-0.078c-0.328-0.192-0.492-0.545-0.434-0.924
		c0.051-0.345,0.326-0.642,0.671-0.724c0.351-0.081,0.728,0.059,0.936,0.348C118.173,53.893,118.224,54.164,118.159,54.422z"/>
</g>
<path d="M192.166,79.225c-0.316,0.877-0.633,1.388-0.924,1.729c-0.439,0.463-1.072,0.608-2.289,0.608
	c-1.023,0-1.582-0.049-1.898-0.244c-0.293-0.194-0.413-0.632-0.413-1.556v-2.824h1.776c1.485,0,1.582,0.194,1.802,1.437h0.68v-3.677
	h-0.68c-0.22,1.169-0.343,1.34-1.802,1.34h-1.776v-3.506c0-0.656,0.048-0.681,0.705-0.681h1.29c1.291,0,1.68,0.17,1.996,0.584
	c0.243,0.292,0.437,0.706,0.657,1.461l0.656-0.049c-0.097-1.12-0.17-2.312-0.195-2.799h-8.761v0.682
	c1.557,0.097,1.68,0.218,1.68,1.996v5.913c0,1.752-0.123,1.898-1.849,2.044v0.656h9.393c0.146-0.485,0.511-2.286,0.632-2.992
	L192.166,79.225z M179.851,74.114c-0.097-1.071-0.219-2.75-0.219-3.481h-0.511c-0.268,0.317-0.413,0.415-0.9,0.415h-7.253
	c-0.462,0-0.682-0.049-0.949-0.415h-0.512c-0.023,0.877-0.146,2.119-0.218,3.529h0.681c0.195-0.899,0.365-1.362,0.609-1.704
	c0.316-0.438,0.681-0.632,2.19-0.632h0.755v7.838c0,1.752-0.146,1.873-1.825,1.995v0.68h5.744v-0.68
	c-1.778-0.122-1.924-0.221-1.924-2.021v-7.812h1.071c1.096,0,1.607,0.146,1.924,0.56c0.219,0.292,0.438,0.828,0.632,1.776
	L179.851,74.114z M162.839,77.691h-3.261l1.606-4.259h0.049L162.839,77.691z M167.999,82.339v-0.656
	c-1.094-0.073-1.557-0.219-2.117-1.654l-3.747-9.322l-0.755,0.172l-3.578,8.737c-0.73,1.775-1.192,1.946-2.312,2.067v0.656h4.406
	v-0.656l-0.584-0.073c-0.706-0.097-0.949-0.292-0.657-1.24c0.194-0.657,0.39-1.241,0.584-1.729h3.967l0.706,1.826
	c0.317,0.875,0.17,1.07-0.561,1.167l-0.437,0.049v0.656H167.999z M152.107,78.908c-0.39,1.07-0.656,1.606-1.07,2.021
	c-0.511,0.51-1.534,0.633-3.433,0.633c-1.241,0-1.996-0.024-2.531-0.098l7.179-10.1l-0.146-0.316h-7.301
	c-0.536,0-0.779-0.049-0.974-0.415h-0.536c-0.048,0.926-0.169,2.216-0.243,3.677h0.657c0.22-0.877,0.414-1.388,0.682-1.801
	c0.267-0.462,0.705-0.658,2.506-0.658h2.652l-7.276,10.198l0.122,0.29h9.662c0.194-0.583,0.56-2.36,0.706-3.286L152.107,78.908z
	 M131.955,76.719v-3.967c0-0.731,0.098-0.95,1.12-0.95c1.411,0,2.604,0.707,2.604,2.481c0,0.854-0.317,1.656-0.949,2.044
	c-0.511,0.295-1.095,0.392-1.777,0.392H131.955z M139.792,81.927c-0.438-0.146-0.925-0.365-1.338-0.804
	c-0.414-0.438-0.73-0.828-1.339-1.704c-0.56-0.778-1.338-2.044-1.605-2.531c1.167-0.438,2.312-1.339,2.312-2.919
	c0-1.095-0.535-1.899-1.242-2.313c-0.73-0.462-1.63-0.607-2.846-0.607h-5.379v0.656c1.533,0.122,1.679,0.194,1.679,1.972v6.06
	c0,1.703-0.146,1.826-1.752,1.947v0.656h5.427v-0.656c-1.605-0.121-1.752-0.267-1.752-1.947v-2.263h0.56
	c0.925,0,1.192,0.17,1.632,0.901c0.339,0.607,0.997,1.751,1.556,2.529c0.73,1.047,1.509,1.583,3.456,1.583h0.56L139.792,81.927z
	 M119.446,75.525h-4.478c0.73-1.996,1.508-4.112,2.287-6.205h0.049L119.446,75.525z M125.651,82.339v-0.68
	c-1.582-0.146-1.898-0.366-2.676-2.458c-1.558-4.234-3.188-8.86-4.698-13.045l-0.753,0.219l-5.039,12.775
	c-0.851,2.143-1.192,2.288-2.726,2.509v0.68h5.282v-0.68c-1.825-0.171-2.044-0.415-1.508-1.947c0.315-1.021,0.681-2.045,1.07-3.14
	h5.184c0.535,1.485,1.022,2.798,1.338,3.749c0.316,0.947,0.098,1.143-1.436,1.338v0.68H125.651z M100.804,71.048h-4.722v0.656
	c1.387,0.098,1.777,0.294,1.875,1.096c0.074,0.608,0.121,1.411,0.121,3.091v3.114H98.03l-6.888-7.957h-3.31v0.656
	c1.679,0.122,2.069,0.488,2.069,2.507v3.262c0,1.678-0.074,2.58-0.147,3.163c-0.098,0.731-0.535,0.95-1.655,1.047v0.656h4.746
	v-0.656c-1.339-0.097-1.801-0.315-1.874-1.07c-0.098-0.56-0.146-1.462-0.146-3.14v-3.821l0.024-0.024l7.325,8.834h0.803v-6.57
	c0-1.68,0.073-2.482,0.146-3.115c0.074-0.777,0.511-0.974,1.679-1.071V71.048z M80.19,77.691h-3.26l1.607-4.259h0.048L80.19,77.691z
	 M85.351,82.339v-0.656c-1.096-0.073-1.558-0.219-2.118-1.654l-3.748-9.322l-0.754,0.172l-3.578,8.737
	c-0.73,1.775-1.193,1.946-2.312,2.067v0.656h4.405v-0.656l-0.585-0.073c-0.706-0.097-0.948-0.292-0.657-1.24
	c0.195-0.657,0.39-1.241,0.585-1.729h3.966l0.707,1.826c0.316,0.875,0.17,1.07-0.56,1.167l-0.438,0.049v0.656H85.351z
	 M70.091,71.048h-3.797l-3.845,7.909l-3.528-7.909h-3.772v0.682c1.728,0.121,1.874,0.218,1.728,2.19l-0.292,3.405
	c-0.146,1.583-0.267,2.533-0.389,3.287c-0.122,0.729-0.536,0.974-1.631,1.07v0.656h4.552v-0.656
	c-1.29-0.097-1.655-0.315-1.704-1.095c-0.024-0.609-0.024-1.486,0.097-3.188l0.244-4.503h0.073l3.724,9.246h0.51l4.308-9.417h0.073
	l-0.024,7.035c-0.025,1.702-0.146,1.775-1.729,1.921v0.656h5.477v-0.656c-1.704-0.146-1.801-0.244-1.825-1.921l-0.121-6.11
	c-0.049-1.704,0.072-1.801,1.874-1.922V71.048z M44.342,76.719v-3.967c0-0.731,0.097-0.95,1.12-0.95
	c1.412,0,2.603,0.707,2.603,2.481c0,0.854-0.315,1.656-0.948,2.044c-0.511,0.295-1.096,0.392-1.778,0.392H44.342z M52.178,81.927
	c-0.438-0.146-0.924-0.365-1.338-0.804c-0.414-0.438-0.73-0.828-1.338-1.704c-0.56-0.778-1.339-2.044-1.606-2.531
	c1.168-0.438,2.312-1.339,2.312-2.919c0-1.095-0.536-1.899-1.241-2.313c-0.73-0.462-1.63-0.607-2.848-0.607H40.74v0.656
	c1.533,0.122,1.68,0.194,1.68,1.972v6.06c0,1.703-0.147,1.826-1.752,1.947v0.656h5.427v-0.656c-1.607-0.121-1.752-0.267-1.752-1.947
	v-2.263h0.56c0.925,0,1.193,0.17,1.631,0.901c0.341,0.607,0.998,1.751,1.558,2.529c0.731,1.047,1.509,1.583,3.457,1.583h0.56
	L52.178,81.927z M36.968,79.225c-0.316,0.877-0.633,1.388-0.924,1.729c-0.439,0.463-1.071,0.608-2.289,0.608
	c-1.022,0-1.582-0.049-1.898-0.244c-0.292-0.194-0.414-0.632-0.414-1.556v-2.824h1.777c1.485,0,1.582,0.194,1.801,1.437h0.68v-3.677
	h-0.68c-0.219,1.169-0.342,1.34-1.801,1.34h-1.777v-3.506c0-0.656,0.048-0.681,0.706-0.681h1.291c1.289,0,1.678,0.17,1.995,0.584
	c0.244,0.292,0.438,0.706,0.657,1.461l0.657-0.049c-0.097-1.12-0.17-2.312-0.194-2.799h-8.761v0.682
	c1.557,0.097,1.679,0.218,1.679,1.996v5.913c0,1.752-0.122,1.898-1.85,2.044v0.656h9.395c0.146-0.485,0.51-2.286,0.631-2.992
	L36.968,79.225z M25.139,75.015h-6.182v0.657c2.386,0.194,2.557,0.342,2.557,2.094v2.067c0,1.023-0.292,1.315-0.779,1.583
	c-0.536,0.267-1.29,0.438-2.117,0.438c-4.697,0-6.766-4.088-6.766-7.593c0-4.503,2.726-7.229,6.449-7.229
	c2.312,0,4.162,0.802,4.747,3.772l0.681-0.146c-0.194-1.606-0.315-2.945-0.389-3.797c-0.779-0.172-2.652-0.706-4.673-0.706
	c-4.771,0-9.296,2.749-9.296,8.396c0,4.818,3.578,8.154,8.931,8.154c1.947,0,3.942-0.536,5.452-0.901
	c-0.146-0.656-0.171-1.436-0.171-2.289v-2.067c0-1.435,0.097-1.558,1.558-1.776V75.015z"/>
<path d="M135.982,97.402c-0.073-0.805-0.164-2.062-0.164-2.61h-0.384c-0.201,0.239-0.311,0.312-0.676,0.312h-5.438
	c-0.347,0-0.511-0.036-0.713-0.312h-0.381c-0.019,0.656-0.109,1.587-0.164,2.645h0.509c0.146-0.675,0.273-1.021,0.457-1.275
	c0.237-0.329,0.512-0.476,1.644-0.476h0.567v5.88c0,1.314-0.11,1.405-1.371,1.497v0.507h4.307v-0.507
	c-1.333-0.092-1.442-0.165-1.442-1.516v-5.861h0.803c0.821,0,1.205,0.109,1.442,0.419c0.164,0.22,0.329,0.622,0.475,1.332
	L135.982,97.402z M125.34,97.347c-0.127-0.913-0.218-1.589-0.327-2.136c-0.329-0.092-1.003-0.345-1.844-0.345
	c-1.863,0-3.011,1.058-3.011,2.536c0,1.387,1.294,2.044,2.299,2.464l0.401,0.183c0.712,0.311,1.48,0.713,1.48,1.717
	c0,0.841-0.604,1.46-1.499,1.46c-1.388,0-2.19-1.405-2.518-2.429l-0.528,0.092c0.145,0.913,0.328,1.991,0.437,2.283
	c0.329,0.199,1.203,0.635,2.373,0.635c1.808,0,3.156-1.093,3.138-2.607c0-1.479-1.112-2.101-2.316-2.593l-0.33-0.128
	c-0.896-0.382-1.608-0.729-1.608-1.679c0-0.714,0.494-1.353,1.37-1.353c1.078,0,1.607,0.858,1.954,1.974L125.34,97.347z
	 M117.382,103.569v-0.488c-1.205-0.093-1.314-0.184-1.314-1.499v-4.473c0-1.352,0.127-1.407,1.314-1.517v-0.489h-4.068v0.509
	c1.168,0.09,1.278,0.146,1.278,1.479v4.49c0,1.315-0.109,1.406-1.278,1.499v0.488H117.382z M110.975,97.402
	c-0.073-0.805-0.165-2.062-0.165-2.61h-0.382c-0.201,0.239-0.311,0.312-0.676,0.312h-5.438c-0.347,0-0.512-0.036-0.712-0.312h-0.382
	c-0.017,0.656-0.109,1.587-0.163,2.645h0.509c0.146-0.675,0.274-1.021,0.456-1.275c0.238-0.329,0.512-0.476,1.646-0.476h0.566v5.88
	c0,1.314-0.109,1.405-1.37,1.497v0.507h4.306v-0.507c-1.333-0.092-1.441-0.165-1.441-1.516v-5.861h0.803
	c0.821,0,1.205,0.109,1.441,0.419c0.165,0.22,0.329,0.622,0.475,1.332L110.975,97.402z M95.898,99.355v-2.977
	c0-0.547,0.073-0.712,0.84-0.712c1.061,0,1.955,0.529,1.955,1.862c0,0.639-0.238,1.241-0.712,1.535
	c-0.384,0.22-0.822,0.291-1.334,0.291H95.898z M101.776,103.263c-0.329-0.109-0.693-0.274-1.004-0.603
	c-0.31-0.329-0.547-0.622-1.003-1.278c-0.419-0.585-1.002-1.534-1.203-1.898c0.875-0.328,1.731-1.004,1.731-2.191
	c0-0.822-0.401-1.424-0.929-1.733c-0.547-0.347-1.223-0.455-2.137-0.455h-4.033v0.49c1.15,0.092,1.26,0.147,1.26,1.48v4.544
	c0,1.279-0.109,1.37-1.315,1.463v0.488h4.071v-0.488c-1.206-0.093-1.316-0.201-1.316-1.463v-1.697h0.42
	c0.694,0,0.896,0.128,1.223,0.676c0.257,0.456,0.75,1.313,1.17,1.898c0.546,0.786,1.13,1.186,2.589,1.186h0.42L101.776,103.263z
	 M87.157,100.087H84.71l1.205-3.194h0.037L87.157,100.087z M91.024,103.569v-0.488c-0.819-0.056-1.167-0.164-1.585-1.243
	l-2.81-6.989l-0.567,0.126l-2.683,6.552c-0.547,1.334-0.894,1.462-1.732,1.555v0.488h3.301v-0.488l-0.438-0.056
	c-0.53-0.074-0.712-0.22-0.493-0.934c0.146-0.492,0.292-0.931,0.438-1.296h2.978l0.529,1.37c0.237,0.657,0.127,0.805-0.419,0.877
	l-0.329,0.038v0.488H91.024z M74.068,101.017c-0.675,1.461-1.496,2.191-2.81,2.191c-1.753,0-3.231-1.626-3.231-3.999
	c0-2.191,1.313-3.762,3.157-3.762c1.333,0,2.263,0.566,2.628,2.138l0.511-0.092c-0.091-0.858-0.146-1.534-0.237-2.263
	c-0.493-0.111-1.442-0.364-2.592-0.364c-2.92,0-5.181,1.823-5.181,4.562c0,2.264,1.568,4.378,4.89,4.378
	c0.913,0,2.263-0.271,2.628-0.379c0.255-0.477,0.603-1.662,0.749-2.303L74.068,101.017z M63.865,103.569v-0.488
	c-1.205-0.093-1.315-0.184-1.315-1.499v-4.473c0-1.352,0.128-1.407,1.315-1.517v-0.489h-4.068v0.509
	c1.168,0.09,1.278,0.146,1.278,1.479v4.49c0,1.315-0.109,1.406-1.278,1.499v0.488H63.865z M57.458,97.402
	c-0.073-0.805-0.164-2.062-0.164-2.61H56.91c-0.2,0.239-0.31,0.312-0.675,0.312h-5.438c-0.347,0-0.512-0.036-0.712-0.312h-0.381
	c-0.019,0.656-0.11,1.587-0.165,2.645h0.508c0.146-0.675,0.274-1.021,0.458-1.275c0.236-0.329,0.511-0.476,1.645-0.476h0.565v5.88
	c0,1.314-0.109,1.405-1.37,1.497v0.507h4.307v-0.507c-1.333-0.092-1.441-0.165-1.441-1.516v-5.861h0.802
	c0.821,0,1.206,0.109,1.443,0.419c0.164,0.22,0.328,0.622,0.474,1.332L57.458,97.402z M46.817,97.347
	c-0.127-0.913-0.219-1.589-0.328-2.136c-0.328-0.092-1.003-0.345-1.844-0.345c-1.863,0-3.011,1.058-3.011,2.536
	c0,1.387,1.293,2.044,2.298,2.464l0.402,0.183c0.713,0.311,1.48,0.713,1.48,1.717c0,0.841-0.603,1.46-1.498,1.46
	c-1.389,0-2.19-1.405-2.518-2.429l-0.529,0.092c0.146,0.913,0.329,1.991,0.438,2.283c0.328,0.199,1.203,0.635,2.373,0.635
	c1.807,0,3.156-1.093,3.138-2.607c0-1.479-1.111-2.101-2.316-2.593l-0.329-0.128c-0.896-0.382-1.608-0.729-1.608-1.679
	c0-0.714,0.494-1.353,1.37-1.353c1.078,0,1.607,0.858,1.955,1.974L46.817,97.347z M35.483,100.087h-2.448l1.207-3.194h0.036
	L35.483,100.087z M39.351,103.569v-0.488c-0.82-0.056-1.167-0.164-1.587-1.243l-2.811-6.989l-0.565,0.126l-2.684,6.552
	c-0.547,1.334-0.893,1.462-1.732,1.555v0.488h3.302v-0.488l-0.438-0.056c-0.529-0.074-0.712-0.22-0.494-0.934
	c0.147-0.492,0.293-0.931,0.438-1.296h2.977l0.529,1.37c0.239,0.657,0.128,0.805-0.42,0.877l-0.328,0.038v0.488H39.351z
	 M27.432,101.145c-0.237,0.693-0.419,1.097-0.674,1.388c-0.293,0.348-0.785,0.456-1.607,0.476c-0.621,0-1.077-0.037-1.333-0.147
	c-0.255-0.128-0.347-0.456-0.347-1.095v-4.711c0-1.313,0.127-1.369,1.368-1.462v-0.489H20.7v0.489
	c1.186,0.093,1.295,0.148,1.295,1.462v4.527c0,1.315-0.091,1.406-1.368,1.498v0.489h6.824c0.128-0.398,0.401-1.822,0.493-2.37
	L27.432,101.145z M13.943,96.434c0-0.639,0.019-0.784,0.896-0.784c1.078,0,2.009,0.565,2.009,1.971c0,1.772-1.206,2.064-1.845,2.064
	c-0.458,0-0.841-0.108-1.06-0.183V96.434z M11.28,95.104v0.509c1.096,0.09,1.205,0.146,1.205,1.479v4.601
	c0,1.205-0.108,1.278-1.277,1.389v0.488h4.179v-0.488c-1.334-0.11-1.444-0.184-1.444-1.408v-1.604l1.078,0.29
	c0.202,0,0.42,0,0.658-0.037c1.552-0.201,2.828-1.074,2.828-2.718c0-1.771-1.294-2.5-3.267-2.5H11.28z"/>
</svg>
