<?xml version="1.0" encoding="utf-8"?>
<!-- Generator: Adobe Illustrator 16.0.0, SVG Export Plug-In . SVG Version: 6.00 Build 0)  -->
<!DOCTYPE svg PUBLIC "-//W3C//DTD SVG 1.1//EN" "http://www.w3.org/Graphics/SVG/1.1/DTD/svg11.dtd">
<svg version="1.1"
	 id="Layer_1" xmlns:cc="http://creativecommons.org/ns#" xmlns:dc="http://purl.org/dc/elements/1.1/" xmlns:inkscape="http://www.inkscape.org/namespaces/inkscape" xmlns:rdf="http://www.w3.org/1999/02/22-rdf-syntax-ns#" xmlns:sodipodi="http://sodipodi.sourceforge.net/DTD/sodipodi-0.dtd" xmlns:svg="http://www.w3.org/2000/svg"
	 xmlns="http://www.w3.org/2000/svg" xmlns:xlink="http://www.w3.org/1999/xlink" x="0px" y="0px" width="512px" height="512px"
	 viewBox="0 0 512 512" enable-background="new 0 0 512 512" xml:space="preserve">
<g id="g2996" transform="translate(0.32800146,0.07000866)">
	<g id="g2987" transform="matrix(0.98046874,0,0,0.98046874,4.9935963,4.9986352)">
		<g id="path2989">
			<path fill="#FFFFFF" d="M255.672,517.131c-69.769,0-135.363-27.169-184.697-76.504C21.641,391.292-5.529,325.699-5.529,255.93
				c0-69.769,27.17-135.363,76.504-184.697S185.903-5.271,255.672-5.271c69.769,0,135.362,27.17,184.697,76.504
				c49.335,49.335,76.504,114.928,76.504,184.697c0,69.769-27.169,135.363-76.504,184.697S325.441,517.131,255.672,517.131z
				 M255.672,5.131c-66.991,0-129.972,26.088-177.342,73.457S4.873,188.939,4.873,255.93S30.961,385.902,78.33,433.272
				s110.351,73.457,177.342,73.457c66.991,0,129.972-26.088,177.342-73.457c47.37-47.37,73.457-110.351,73.457-177.342
				c0-66.991-26.088-129.972-73.457-177.342C385.644,31.219,322.663,5.131,255.672,5.131z"/>
		</g>
	</g>
	<g id="g4124" transform="translate(-1012.328,37.929991)">
		<g id="g2995">
			<g id="path12">
				<path fill="#FFFFFF" d="M1329.027,79.34c3.567,0,7.133,0,10.707,0c0.462,0.438,0.921,0.559,1.38,0c0.578,0,1.159,0,1.728,0
					c-0.042,0.927,0.74,0.573,1.134,0.656c1.797,0.336,3.652,0.556,5.428,0.941c13.854,2.941,25.744,9.431,35.705,19.399
					c0.671,0.688,1.252,1.109,2.355,0.874c11.899-2.504,23.333-6.319,34.212-11.698c3.117-1.517,6.146-3.16,9.535-4.91
					c-2.742,8.172-6.654,15.349-11.851,21.854c-5.228,6.543-11.509,11.953-18.584,16.509c13.734-1.563,26.841-5.16,39.952-10.755
					c-0.741,1.074-1.14,1.677-1.566,2.302c-9.005,12.727-19.814,23.735-32.504,32.948c-0.949,0.69-1.259,1.413-1.241,2.522
					c0.052,4.321,0.226,8.642,0.097,12.946c-0.289,11.363-1.669,22.558-4.003,33.655c-4.62,22.072-12.655,42.918-24.064,62.472
					c-11.005,18.793-24.661,35.455-41.133,49.875c-15.016,13.1-31.714,23.623-50.119,31.506
					c-15.239,6.489-31.072,10.994-47.487,13.519c-6.153,0.957-12.313,1.729-18.504,2.103c-0.494,0.03-1.335-0.371-1.515,0.604
					c-0.918,0-1.84,0-2.758,0c-0.69-0.522-1.396-0.438-2.087,0c-6.452,0-12.905,0-19.364,0c-0.462-0.438-0.921-0.56-1.38,0
					c-1.149,0-2.314,0-3.465,0c0.025-0.052,0.077-0.103,0.109-0.138c0.026-0.03,0.068-0.133,0.068-0.133
					c-0.546-0.423-1.208-0.336-1.82-0.388c-11.724-0.84-23.275-2.809-34.646-5.684c-18.167-4.656-35.33-11.732-51.51-21.097
					c-2.07-1.194-4.096-2.505-6.564-4c39.015,3.883,73.657-5.668,104.826-28.883c-36.64-1.465-59.439-26.646-66.011-48.703
					c10.479,1.797,20.825,1.563,31.124-1.242c-16.379-3.75-29.99-11.922-40.521-24.85c-10.556-12.979-15.576-27.84-15.631-44.754
					c5.075,2.776,10.09,4.827,15.342,6.254c5.304,1.465,10.684,2.354,16.507,2.508c-37.143-25.873-36.639-70.037-21.47-93.238
					c4.23,5.146,8.709,10.039,13.425,14.696c12.974,12.81,27.41,23.753,43.377,32.679c27.32,15.248,56.662,23.705,87.973,25.537
					c0.918,0.066,1.189-0.085,0.943-1.109c-0.844-3.414-1.284-6.926-1.47-10.453c-0.793-15.186,2.651-29.339,11.124-42.065
					c11.927-17.938,28.713-28.545,50.296-31.637c0.382-0.052,1.162,0.284,1.146-0.624c0.562,0,1.147,0,1.727,0
					C1328.329,79.778,1328.668,79.778,1329.027,79.34L1329.027,79.34z"/>
			</g>
		</g>
		<g id="Layer_1_1_-8">
		</g>
	</g>
</g>
<g id="Layer_1_1_">
</g>
</svg>
